<?xml version="1.0" encoding="UTF-8" standalone="no"?>
<!-- Created with Inkscape (http://www.inkscape.org/) -->

<svg
   width="136.53333333333333"
   height="136.53333333333333"
   id="svg4152"
   version="1.1"
   inkscape:version="1.1.2 (0a00cf5339, 2022-02-04)"
   viewBox="0.0 0.0 136.53333333333333 136.53333333333333"
   sodipodi:docname="1.svg"
   xmlns:inkscape="http://www.inkscape.org/namespaces/inkscape"
   xmlns:sodipodi="http://sodipodi.sourceforge.net/DTD/sodipodi-0.dtd"
   xmlns:xlink="http://www.w3.org/1999/xlink"
   xmlns="http://www.w3.org/2000/svg"
   xmlns:svg="http://www.w3.org/2000/svg"
   xmlns:rdf="http://www.w3.org/1999/02/22-rdf-syntax-ns#"
   xmlns:cc="http://creativecommons.org/ns#"
   xmlns:dc="http://purl.org/dc/elements/1.1/">
  <defs
     id="defs4154">
    <linearGradient
       inkscape:collect="always"
       xlink:href="#linearGradient6237"
       id="linearGradient7109"
       gradientUnits="userSpaceOnUse"
       gradientTransform="translate(176.44096,1595.3689)"
       x1="0"
       y1="-1519.8583"
       x2="-15.34297"
       y2="-1557.063" />
    <linearGradient
       inkscape:collect="always"
       id="linearGradient6237">
      <stop
         style="stop-color:#000000;stop-opacity:0.29803923"
         offset="0"
         id="stop6239" />
      <stop
         id="stop6245"
         offset="0.47619033"
         style="stop-color:#000000;stop-opacity:0" />
      <stop
         id="stop6243"
         offset="0.71801257"
         style="stop-color:#000000;stop-opacity:0" />
      <stop
         style="stop-color:#000000;stop-opacity:0.11242604"
         offset="1"
         id="stop6241" />
    </linearGradient>
  </defs>
  <sodipodi:namedview
     id="base"
     pagecolor="#1e222d"
     bordercolor="#666666"
     borderopacity="1.0"
     inkscape:pageopacity="0"
     inkscape:pageshadow="2"
     inkscape:zoom="5.6568542"
     inkscape:cx="50.911689"
     inkscape:cy="100.40916"
     inkscape:current-layer="layer1"
     showgrid="true"
     inkscape:document-units="px"
     inkscape:grid-bbox="true"
     inkscape:window-width="1920"
     inkscape:window-height="1027"
     inkscape:window-x="0"
     inkscape:window-y="0"
     inkscape:window-maximized="1"
     inkscape:snap-bbox="true"
     inkscape:bbox-paths="true"
     inkscape:bbox-nodes="true"
     inkscape:snap-bbox-edge-midpoints="true"
     inkscape:snap-bbox-midpoints="true"
     inkscape:object-paths="true"
     inkscape:snap-intersection-paths="true"
     inkscape:object-nodes="true"
     inkscape:snap-smooth-nodes="true"
     inkscape:snap-midpoints="true"
     inkscape:snap-object-midpoints="true"
     inkscape:snap-center="true"
     inkscape:snap-global="true"
     inkscape:snap-page="false"
     inkscape:snap-grids="true"
     showguides="false"
     inkscape:snap-nodes="true"
     inkscape:snap-others="true"
     inkscape:snap-to-guides="false"
     inkscape:pagecheckerboard="0">
    <inkscape:grid
       type="axonomgrid"
       id="grid4835"
       units="mm"
       empspacing="5"
       spacingy="1.8897637" />
  </sodipodi:namedview>
  <metadata
     id="metadata4157">
    <rdf:RDF>
      <cc:Work
         rdf:about="">
        <dc:format>image/svg+xml</dc:format>
        <dc:type
           rdf:resource="http://purl.org/dc/dcmitype/StillImage" />
      </cc:Work>
    </rdf:RDF>
  </metadata>
  <g
     id="layer1"
     inkscape:label="Layer 1"
     inkscape:groupmode="layer"
     transform="matrix(1.06667 0 0 1.06667 0 68.2667)">
    <g
       id="g936"
       transform="translate(-115.07189,-22.145511)">
      <g
         id="g6355"
         transform="translate(-905.23586,1151.1339)">
        <path
           style="opacity:1;fill:#412f48;fill-opacity:1;stroke:none;stroke-width:1.9;stroke-linecap:square;stroke-linejoin:round;stroke-miterlimit:4;stroke-dasharray:none;stroke-dashoffset:0;stroke-opacity:0.521569"
           d="m 1043.322,-1161.9843 46.0289,-26.5748 30.686,17.7165 v 31.8898 l -3.0686,1.7717 v 3.5433 l 3.0686,1.7716 v 31.8898 l -46.029,26.5748 -30.6859,-17.7165 z"
           id="path6309"
           inkscape:connector-curvature="0"
           sodipodi:nodetypes="ccccccccccc" />
        <path
           sodipodi:nodetypes="cccccccccccc"
           inkscape:connector-curvature="0"
           id="path6311"
           d="m 1120.0369,-1170.8426 -46.029,26.5748 v 70.8662 l 46.029,-26.5748 v -24.8032 -7.0866 l -3.0686,-1.7716 v -3.5433 l 3.0686,-1.7717 v -10.6299 -3.5433 z"
           style="opacity:1;fill:#403d6b;fill-opacity:1;stroke:none;stroke-width:1.9;stroke-linecap:square;stroke-linejoin:round;stroke-miterlimit:4;stroke-dasharray:none;stroke-dashoffset:0;stroke-opacity:0.521569" />
        <path
           style="opacity:1;fill:#38668b;fill-opacity:1;stroke:none;stroke-width:1.9;stroke-linecap:square;stroke-linejoin:round;stroke-miterlimit:4;stroke-dasharray:none;stroke-dashoffset:0;stroke-opacity:0.521569"
           d="m 1120.0369,-1131.8662 -46.029,26.5748 v 31.8898 l 46.029,-26.5748 z"
           id="path6313"
           inkscape:connector-curvature="0"
           sodipodi:nodetypes="ccccc" />
        <path
           sodipodi:nodetypes="ccccc"
           style="opacity:1;fill:#2ba0b5;fill-opacity:1;stroke:none;stroke-width:1.9;stroke-linecap:square;stroke-linejoin:round;stroke-miterlimit:4;stroke-dasharray:none;stroke-dashoffset:0;stroke-opacity:0.521569"
           d="m 1043.322,-1161.9843 30.6859,17.7165 46.029,-26.5748 -30.686,-17.7165 z"
           id="path6317"
           inkscape:connector-curvature="0" />
        <path
           style="opacity:1;fill:#403d6b;fill-opacity:1;stroke:none;stroke-width:1.9;stroke-linecap:square;stroke-linejoin:round;stroke-miterlimit:4;stroke-dasharray:none;stroke-dashoffset:0;stroke-opacity:0.521569"
           d="m 1089.3509,-1138.9528 15.343,-8.8583 v 10.63 l -15.343,8.8582 v -10.6299"
           id="path6319"
           inkscape:connector-curvature="0"
           sodipodi:nodetypes="ccccc" />
        <path
           style="opacity:1;fill:#2ba0b5;fill-opacity:1;stroke:none;stroke-width:1.9;stroke-linecap:square;stroke-linejoin:round;stroke-miterlimit:4;stroke-dasharray:none;stroke-dashoffset:0;stroke-opacity:0.521569"
           d="m 1120.0369,-1131.8662 -3.0686,-1.7716 -46.0289,26.5748 3.0685,1.7716 z"
           id="path6323"
           inkscape:connector-curvature="0"
           sodipodi:nodetypes="ccccc" />
        <path
           sodipodi:nodetypes="ccccc"
           inkscape:connector-curvature="0"
           id="path6325"
           d="m 1089.3509,-1103.5197 15.343,-8.8583 v 10.6299 l -15.343,8.8583 v -10.6299"
           style="opacity:1;fill:#403d6b;fill-opacity:1;stroke:none;stroke-width:1.9;stroke-linecap:square;stroke-linejoin:round;stroke-miterlimit:4;stroke-dasharray:none;stroke-dashoffset:0;stroke-opacity:0.521569" />
        <path
           sodipodi:nodetypes="ccccc"
           inkscape:connector-curvature="0"
           id="path6327"
           d="m 1089.3509,-1096.4331 12.2744,-7.0866 3.0686,1.7716 -15.343,8.8583 z"
           style="opacity:1;fill:#2ba0b5;fill-opacity:1;stroke:none;stroke-width:1.9;stroke-linecap:square;stroke-linejoin:round;stroke-miterlimit:4;stroke-dasharray:none;stroke-dashoffset:0;stroke-opacity:0.521569" />
        <path
           sodipodi:nodetypes="ccccc"
           inkscape:connector-curvature="0"
           id="path6315"
           d="m 1135.3798,-1161.9843 -46.029,26.5748 v 31.8898 l 46.029,-26.5748 z"
           style="opacity:1;fill:#38668b;fill-opacity:1;stroke:none;stroke-width:1.9;stroke-linecap:square;stroke-linejoin:round;stroke-miterlimit:4;stroke-dasharray:none;stroke-dashoffset:0;stroke-opacity:0.521569" />
        <path
           sodipodi:nodetypes="ccccc"
           style="opacity:1;fill:#403d6b;fill-opacity:0.431953;stroke:none;stroke-width:1.9;stroke-linecap:square;stroke-linejoin:round;stroke-miterlimit:4;stroke-dasharray:none;stroke-dashoffset:0;stroke-opacity:0.521569"
           d="m 1070.9394,-1146.0394 3.0685,1.7716 v 35.4332 l -3.0686,1.7716 z"
           id="path6329"
           inkscape:connector-curvature="0" />
        <path
           inkscape:connector-curvature="0"
           id="path6331"
           d="m 1070.9394,-1107.063 3.0685,1.7716 v 31.8898 l -3.0685,-1.7717 z"
           style="opacity:1;fill:#353555;fill-opacity:0.431953;stroke:none;stroke-width:1.9;stroke-linecap:square;stroke-linejoin:round;stroke-miterlimit:4;stroke-dasharray:none;stroke-dashoffset:0;stroke-opacity:0.521569" />
        <path
           style="opacity:1;fill:#38668b;fill-opacity:1;stroke:none;stroke-width:1.9;stroke-linecap:square;stroke-linejoin:round;stroke-miterlimit:4;stroke-dasharray:none;stroke-dashoffset:0;stroke-opacity:0.521569"
           d="m 1043.322,-1161.9843 27.6174,15.9449 46.0289,-26.5748 -27.6174,-15.9449 z"
           id="path6333"
           inkscape:connector-curvature="0" />
        <path
           style="opacity:1;fill:#292941;fill-opacity:1;stroke:none;stroke-width:1.9;stroke-linecap:square;stroke-linejoin:round;stroke-miterlimit:4;stroke-dasharray:none;stroke-dashoffset:0;stroke-opacity:0.521569"
           d="m 1046.3906,-1089.3465 v 3.5433 l 27.6173,15.9449 v -3.5433 l -27.6173,-15.9449"
           id="path6337"
           inkscape:connector-curvature="0"
           sodipodi:nodetypes="ccccc" />
        <path
           style="opacity:1;fill:#403d6b;fill-opacity:1;stroke:none;stroke-width:1.9;stroke-linecap:square;stroke-linejoin:round;stroke-miterlimit:4;stroke-dasharray:none;stroke-dashoffset:0;stroke-opacity:0.521569"
           d="m 1074.0079,-1073.4016 v 3.5433 l 39.8918,-23.0315 v -3.5433"
           id="path6339"
           inkscape:connector-curvature="0"
           sodipodi:nodetypes="cccc" />
        <path
           inkscape:connector-curvature="0"
           id="path6341"
           d="m 1106.2282,-1132.7519 15.3429,-8.8583 v 10.63 l -15.3429,8.8582 z"
           style="opacity:1;fill:#403d6b;fill-opacity:1;stroke:none;stroke-width:4;stroke-linecap:round;stroke-linejoin:round;stroke-miterlimit:4;stroke-dasharray:none;stroke-dashoffset:0;stroke-opacity:1" />
        <path
           style="opacity:1;fill:#2ba0b5;fill-opacity:1;stroke:none;stroke-width:1.9;stroke-linecap:square;stroke-linejoin:round;stroke-miterlimit:4;stroke-dasharray:none;stroke-dashoffset:0;stroke-opacity:0.521569"
           d="m 1106.2281,-1125.6654 12.2744,-7.0866 3.0686,1.7717 -15.343,8.8582 z"
           id="path6321"
           inkscape:connector-curvature="0"
           sodipodi:nodetypes="ccccc" />
        <path
           inkscape:connector-curvature="0"
           id="path6343"
           d="m 1086.2823,-1137.1811 3.0686,1.7717 46.0289,-26.5749 -3.0686,-1.7716 -46.0289,26.5748"
           style="opacity:1;fill:#2ba0b5;fill-opacity:1;stroke:none;stroke-width:4;stroke-linecap:round;stroke-linejoin:round;stroke-miterlimit:4;stroke-dasharray:none;stroke-dashoffset:0;stroke-opacity:1" />
        <path
           sodipodi:nodetypes="ccccc"
           inkscape:connector-curvature="0"
           id="path6345"
           d="m 1086.2823,-1137.1811 v 31.8898 l 3.0686,1.7716 v -31.8897 l -3.0686,-1.7717"
           style="opacity:1;fill:#2ba0b5;fill-opacity:1;stroke:none;stroke-width:4;stroke-linecap:round;stroke-linejoin:round;stroke-miterlimit:4;stroke-dasharray:none;stroke-dashoffset:0;stroke-opacity:1" />
        <path
           inkscape:connector-curvature="0"
           id="path6347"
           d="m 1077.0765,-1142.4961 39.8917,-23.0315 v 10.63 l -30.6859,17.7165 v 21.2598 l -9.2058,5.315 v -31.8898"
           style="opacity:1;fill:#412f48;fill-opacity:1;stroke:none;stroke-width:4;stroke-linecap:round;stroke-linejoin:round;stroke-miterlimit:4;stroke-dasharray:none;stroke-dashoffset:0;stroke-opacity:1" />
        <path
           sodipodi:nodetypes="ccccc"
           inkscape:connector-curvature="0"
           id="path6349"
           d="m 1080.1451,-1137.1811 6.1372,3.5433 v 17.7165 l -6.1372,-3.5433 v -17.7165"
           style="opacity:1;fill:#403d6b;fill-opacity:1;stroke:none;stroke-width:4;stroke-linecap:round;stroke-linejoin:round;stroke-miterlimit:4;stroke-dasharray:none;stroke-dashoffset:0;stroke-opacity:1" />
        <path
           inkscape:connector-curvature="0"
           id="path6351"
           d="m 1113.8996,-1160.2126 6.1372,3.5433 -6.1372,3.5433 v -7.0866"
           style="opacity:1;fill:#403d6b;fill-opacity:1;stroke:none;stroke-width:4;stroke-linecap:round;stroke-linejoin:round;stroke-miterlimit:4;stroke-dasharray:none;stroke-dashoffset:0;stroke-opacity:1" />
        <path
           inkscape:connector-curvature="0"
           id="path6353"
           d="m 1083.2137,-1110.6063 v 14.1732 l 36.8231,-21.2598 v -3.5433 l -30.6859,17.7165 -3.0686,-1.7716 v -10.63 l -6.1372,3.5433 3.0686,1.7717"
           style="opacity:1;fill:#403d6b;fill-opacity:0.431953;stroke:none;stroke-width:4;stroke-linecap:round;stroke-linejoin:round;stroke-miterlimit:4;stroke-dasharray:none;stroke-dashoffset:0;stroke-opacity:1" />
      </g>
    </g>
    <g
       id="g944"
       transform="matrix(0.5,0,0,0.5,-46.794585,20.045637)">
      <path
         style="fill:#474241;fill-opacity:1;stroke:none;stroke-width:4;stroke-linecap:round;stroke-linejoin:round;stroke-miterlimit:4;stroke-dasharray:none;stroke-dashoffset:0;stroke-opacity:1"
         d="m 99.72611,24.1328 21.48016,-12.4016 3.0686,1.7717 V 9.9595 l 21.48015,-12.4015 46.02891,26.5748 v 35.433 L 145.75502,86.1406 99.72611,59.5658 Z"
         id="path7065"
         inkscape:connector-curvature="0" />
      <path
         style="fill:#6c4b37;fill-opacity:1;stroke:none;stroke-width:4;stroke-linecap:round;stroke-linejoin:round;stroke-miterlimit:4;stroke-dasharray:none;stroke-dashoffset:0;stroke-opacity:1"
         d="m 161.09799,38.306 9.20579,-5.315 6.13718,3.5433 v 7.0867 l -12.27437,7.0866 -3.0686,-12.4016"
         id="path7067"
         inkscape:connector-curvature="0" />
      <path
         style="fill:#cb8f21;fill-opacity:1;stroke:none;stroke-width:4;stroke-linecap:round;stroke-linejoin:round;stroke-miterlimit:4;stroke-dasharray:none;stroke-dashoffset:0;stroke-opacity:1"
         d="M 99.72611,24.1328 145.75502,50.7076 191.78393,24.1328 145.75502,-2.442 124.27487,9.9595 v 3.5434 l -3.0686,-1.7717 z"
         id="path7069"
         inkscape:connector-curvature="0"
         sodipodi:nodetypes="cccccccc" />
      <path
         style="fill:#dda02f;fill-opacity:1;stroke:none;stroke-width:4;stroke-linecap:round;stroke-linejoin:round;stroke-miterlimit:4;stroke-dasharray:none;stroke-dashoffset:0;stroke-opacity:1"
         d="m 99.72611,24.1328 v 35.433 l 46.02891,26.5748 V 50.7076 L 99.72611,24.1328"
         id="path7071"
         inkscape:connector-curvature="0" />
      <path
         style="fill:#cb8f21;fill-opacity:1;stroke:none;stroke-width:4;stroke-linecap:round;stroke-linejoin:round;stroke-miterlimit:4;stroke-dasharray:none;stroke-dashoffset:0;stroke-opacity:1"
         d="m 99.72611,27.6761 46.02891,26.5748 V 86.1406 L 99.72611,59.5658 V 27.6761"
         id="path7073"
         inkscape:connector-curvature="0" />
      <path
         style="fill:#bc6d34;fill-opacity:0.378698;stroke:none;stroke-width:4;stroke-linecap:round;stroke-linejoin:round;stroke-miterlimit:4;stroke-dasharray:none;stroke-dashoffset:0;stroke-opacity:1"
         d="m 124.27487,52.4792 18.41156,10.63 V 80.8257 L 124.27487,70.1958 Z"
         id="path7075"
         inkscape:connector-curvature="0" />
      <path
         style="fill:#c49d6a;fill-opacity:1;stroke:none;stroke-width:4;stroke-linecap:round;stroke-linejoin:round;stroke-miterlimit:4;stroke-dasharray:none;stroke-dashoffset:0;stroke-opacity:1"
         d="m 145.75502,50.7076 v 3.5433 31.8897 l 3.0686,-1.7716 V 52.4792 L 167.23518,41.8493 V 38.306 Z"
         id="path7077"
         inkscape:connector-curvature="0"
         sodipodi:nodetypes="cccccccc" />
      <path
         style="fill:#c49d6a;fill-opacity:1;stroke:none;stroke-width:4;stroke-linecap:round;stroke-linejoin:round;stroke-miterlimit:4;stroke-dasharray:none;stroke-dashoffset:0;stroke-opacity:1"
         d="m 191.78393,24.1328 v 3.5433 l -21.48015,12.4016 v -3.5434 z"
         id="path7079"
         inkscape:connector-curvature="0" />
      <path
         style="fill:#8c6946;fill-opacity:1;stroke:none;stroke-width:4;stroke-linecap:round;stroke-linejoin:round;stroke-miterlimit:4;stroke-dasharray:none;stroke-dashoffset:0;stroke-opacity:1"
         d="M 170.30378,40.0777 124.27487,13.5029 V 9.9595 l 46.02891,26.5748 z"
         id="path7081"
         inkscape:connector-curvature="0"
         sodipodi:nodetypes="ccccc" />
      <path
         style="fill:#c49d6a;fill-opacity:1;stroke:none;stroke-width:4;stroke-linecap:round;stroke-linejoin:round;stroke-miterlimit:4;stroke-dasharray:none;stroke-dashoffset:0;stroke-opacity:1"
         d="m 188.71534,29.4477 v 31.8898 l 3.06859,-1.7717 V 27.6761 l -3.06859,1.7716"
         id="path7083"
         inkscape:connector-curvature="0" />
      <path
         style="fill:#c49d6a;fill-opacity:1;stroke:none;stroke-width:4;stroke-linecap:round;stroke-linejoin:round;stroke-miterlimit:4;stroke-dasharray:none;stroke-dashoffset:0;stroke-opacity:1"
         d="m 151.89221,82.5973 -3.06859,1.7717 v -3.5433 -3.5433 l 3.06859,-23.0315 36.82313,-21.2599 v 24.8032 0 3.5433 l -3.0686,1.7717 z"
         id="path7085"
         inkscape:connector-curvature="0"
         sodipodi:nodetypes="ccccccccccc" />
      <path
         style="fill:#bc6d34;fill-opacity:1;stroke:none;stroke-width:4;stroke-linecap:round;stroke-linejoin:round;stroke-miterlimit:4;stroke-dasharray:none;stroke-dashoffset:0;stroke-opacity:1"
         d="m 148.82362,52.4792 39.89172,-23.0315 v 28.3465 l 3.06859,1.7716 -42.96031,24.8032"
         id="path7087"
         inkscape:connector-curvature="0"
         sodipodi:nodetypes="ccccc" />
      <path
         style="fill:#ebe72c;fill-opacity:0.698225;stroke:none;stroke-width:4;stroke-linecap:round;stroke-linejoin:round;stroke-miterlimit:4;stroke-dasharray:none;stroke-dashoffset:0;stroke-opacity:1"
         d="m 130.41205,24.1328 v 3.5433 l 3.0686,-1.7717 v 3.5433 l 3.06859,-1.7716 v 3.5433 l 3.06859,-1.7717 v 3.5433 l 3.0686,-1.7716 v 3.5433 l 3.06859,-1.7717 15.34297,-8.8582 v -3.5433 l -3.05371,1.7802 -0.0149,-3.5519 -3.05421,1.78 -0.0144,-3.5516 -3.02856,1.7947 -0.04,-3.5664 -3.06219,1.7754 -0.006,-3.5471 -18.41156,10.63"
         id="path7089"
         inkscape:connector-curvature="0"
         sodipodi:nodetypes="cccccccccccccccccccccc" />
      <path
         style="fill:#000000;fill-opacity:0.0887574;stroke:none;stroke-width:4;stroke-linecap:round;stroke-linejoin:round;stroke-miterlimit:4;stroke-dasharray:none;stroke-dashoffset:0;stroke-opacity:1"
         d="m 124.27487,9.9595 3.06859,5.315 v -3.5433 l 3.06859,5.315 v -3.5433 l 3.0686,5.3149 v -3.5433 l 3.06859,5.315 v -3.5433 l 3.0686,5.3149 v -3.5433 l 3.06859,5.315 v -3.5433 l 3.06859,5.3149 v -3.5433 l 3.0686,5.315 v -3.5433 l 3.06859,5.3149 v -3.5433 l 3.06859,5.315 v -3.5433 l 3.0686,5.3149 v -3.5433 l 3.06859,5.315 v -3.5433 l 3.0686,5.3149 V 32.991 l 3.06859,5.315 v -3.5433 l 3.0686,5.315 V 36.5343 L 124.27487,9.9595"
         id="path7091"
         inkscape:connector-curvature="0" />
      <path
         style="fill:#000000;fill-opacity:0.0887574;stroke:none;stroke-width:4;stroke-linecap:round;stroke-linejoin:round;stroke-miterlimit:4;stroke-dasharray:none;stroke-dashoffset:0;stroke-opacity:1"
         d="m 170.30378,36.5343 3.06859,1.7717 v -3.5433 l 3.06859,1.7716 V 32.991 l 3.0686,1.7717 v -3.5433 l 3.06859,1.7716 v -3.5433 l 3.06859,1.7717 v -3.5433 l 3.0686,1.7716 v -3.5433 l 3.06859,1.7717 v -3.5433 l -21.48015,12.4015"
         id="path7093"
         inkscape:connector-curvature="0" />
      <path
         style="fill:#000000;fill-opacity:0.0887574;stroke:none;stroke-width:4;stroke-linecap:round;stroke-linejoin:round;stroke-miterlimit:4;stroke-dasharray:none;stroke-dashoffset:0;stroke-opacity:1"
         d="m 167.23518,38.306 v 3.5433 l -3.06859,-1.7716 v 3.5433 l -3.0686,-1.7717 v 3.5433 L 158.0294,43.621 v 3.5433 l -3.0686,-1.7717 v 3.5433 l -3.06859,-1.7716 v 3.5433 l -3.06859,-1.7717 v 3.5433 l -3.0686,-1.7716 z"
         id="path7095"
         inkscape:connector-curvature="0" />
      <path
         style="fill:#000000;fill-opacity:0.0650888;stroke:none;stroke-width:4;stroke-linecap:round;stroke-linejoin:round;stroke-miterlimit:4;stroke-dasharray:none;stroke-dashoffset:0;stroke-opacity:1"
         d="m 148.82362,52.4792 -3.0686,1.7717 3.0686,1.7716 -3.0686,1.7717 3.0686,1.7716 -3.0686,1.7717 3.0686,1.7717 -3.0686,1.7716 3.0686,1.7717 -3.0686,1.7716 3.0686,1.7717 -3.0686,1.7716 3.0686,1.7717 -3.0686,1.7716 3.0686,1.7717 -3.0686,1.7716 3.0686,1.7717 -3.0686,1.7716 3.0686,1.7717 z"
         id="path7097"
         inkscape:connector-curvature="0" />
      <path
         style="fill:#000000;fill-opacity:0.0710059;stroke:none;stroke-width:4;stroke-linecap:round;stroke-linejoin:round;stroke-miterlimit:4;stroke-dasharray:none;stroke-dashoffset:0;stroke-opacity:1"
         d="m 191.78393,27.6761 -3.06859,1.7716 3.06859,1.7717 -3.06859,1.7716 3.06859,1.7717 -3.06859,1.7716 3.06859,1.7717 -3.06859,1.7717 3.06859,1.7716 -3.06859,1.7717 3.06859,1.7716 -3.06859,1.7717 3.06859,1.7716 -3.06859,1.7717 3.06859,1.7716 -3.06859,1.7717 3.06859,1.7716 -3.06859,1.7717 3.06859,1.7716 z"
         id="path7099"
         inkscape:connector-curvature="0" />
      <path
         style="fill:#d7c88e;fill-opacity:1;stroke:none;stroke-width:4;stroke-linecap:round;stroke-linejoin:round;stroke-miterlimit:4;stroke-dasharray:none;stroke-dashoffset:0;stroke-opacity:1"
         d="M 139.61784,75.5107 127.34346,68.4241 V 57.7942 l 12.27438,7.0866 v 10.6299"
         id="path7101"
         inkscape:connector-curvature="0" />
      <path
         style="fill:url(#linearGradient7109);fill-opacity:1;stroke:none;stroke-width:4;stroke-linecap:round;stroke-linejoin:round;stroke-miterlimit:4;stroke-dasharray:none;stroke-dashoffset:0;stroke-opacity:1"
         d="M 148.82362,48.9359 191.78393,24.1328 V 56.0225 L 145.75502,82.5973 V 50.7076"
         id="path7103"
         inkscape:connector-curvature="0"
         sodipodi:nodetypes="ccccc" />
      <path
         style="fill:#ebe72c;fill-opacity:0.698225;stroke:none;stroke-width:4;stroke-linecap:round;stroke-linejoin:round;stroke-miterlimit:4;stroke-dasharray:none;stroke-dashoffset:0;stroke-opacity:1"
         d="m 164.16659,75.5107 15.34297,-8.8582 v -3.5433 l -3.0686,-1.7717 v 3.5433 l -3.06859,-1.7716 v 3.5433 l -3.06859,-1.7717 v 3.5433 l -3.0686,-1.7716 v 3.5433 l -3.06859,-1.7717 v 3.5433 3.5433"
         id="path7105"
         inkscape:connector-curvature="0"
         sodipodi:nodetypes="cccccccccccccc" />
      <path
         style="fill:#000000;fill-opacity:0.0828402;stroke:none;stroke-width:4;stroke-linecap:round;stroke-linejoin:round;stroke-miterlimit:4;stroke-dasharray:none;stroke-dashoffset:0;stroke-opacity:1"
         d="M 148.82362,52.4792 188.71534,29.4477 V 32.991 L 148.82362,56.0225 Z"
         id="path7107"
         inkscape:connector-curvature="0" />
    </g>
  </g>
</svg>
