<?xml version="1.0" encoding="UTF-8" standalone="no"?>
<!-- Created with Inkscape (http://www.inkscape.org/) -->

<svg
   width="392.78"
   height="245.66928"
   id="svg4152"
   version="1.1"
   inkscape:version="1.1.2 (0a00cf5339, 2022-02-04)"
   viewBox="0 0 392.77998 245.66927"
   sodipodi:docname="about-logo.svg"
   xmlns:inkscape="http://www.inkscape.org/namespaces/inkscape"
   xmlns:sodipodi="http://sodipodi.sourceforge.net/DTD/sodipodi-0.dtd"
   xmlns:xlink="http://www.w3.org/1999/xlink"
   xmlns="http://www.w3.org/2000/svg"
   xmlns:svg="http://www.w3.org/2000/svg"
   xmlns:rdf="http://www.w3.org/1999/02/22-rdf-syntax-ns#"
   xmlns:cc="http://creativecommons.org/ns#"
   xmlns:dc="http://purl.org/dc/elements/1.1/">
  <defs
     id="defs4154">
    <linearGradient
       inkscape:collect="always"
       xlink:href="#linearGradient4850"
       id="linearGradient6539"
       gradientUnits="userSpaceOnUse"
       x1="-1598.7374"
       y1="-306.2756"
       x2="-1592.6002"
       y2="-299.18896"
       gradientTransform="matrix(1.3415873,0,0,1.3415873,2048.602,533.85035)" />
    <linearGradient
       inkscape:collect="always"
       id="linearGradient4850">
      <stop
         style="stop-color:#000000;stop-opacity:0.43023255"
         offset="0"
         id="stop4852" />
      <stop
         id="stop4858"
         offset="0.32833275"
         style="stop-color:#000000;stop-opacity:0.35294119" />
      <stop
         style="stop-color:#000000;stop-opacity:0.05232558"
         offset="0.75692421"
         id="stop4860" />
      <stop
         style="stop-color:#000000;stop-opacity:0"
         offset="1"
         id="stop4854" />
    </linearGradient>
    <radialGradient
       inkscape:collect="always"
       xlink:href="#linearGradient6797"
       id="radialGradient6807"
       cx="-1654.1775"
       cy="-307.16125"
       fx="-1652.5637"
       fy="-305.50909"
       r="4.60285"
       gradientTransform="matrix(1.314488,-0.22352532,0.18723205,1.1010577,577.9347,-337.8239)"
       gradientUnits="userSpaceOnUse" />
    <linearGradient
       inkscape:collect="always"
       id="linearGradient6797">
      <stop
         style="stop-color:#667679;stop-opacity:1"
         offset="0"
         id="stop6799" />
      <stop
         style="stop-color:#6d8a8d;stop-opacity:1"
         offset="1"
         id="stop6801" />
    </linearGradient>
    <linearGradient
       inkscape:collect="always"
       xlink:href="#linearGradient4850"
       id="linearGradient6795"
       gradientUnits="userSpaceOnUse"
       x1="-1647.835"
       y1="-320.44882"
       x2="-1653.9722"
       y2="-313.36221" />
    <linearGradient
       inkscape:collect="always"
       xlink:href="#linearGradient4850"
       id="linearGradient6541"
       gradientUnits="userSpaceOnUse"
       x1="-1611.0118"
       y1="-320.44882"
       x2="-1626.3547"
       y2="-325.76379"
       gradientTransform="matrix(1.3415873,0,0,1.3415873,2048.602,533.85035)" />
    <filter
       inkscape:collect="always"
       style="color-interpolation-filters:sRGB"
       id="filter46598"
       x="-1.4407737"
       y="-0.2367103"
       width="3.8815474"
       height="1.4734206">
      <feGaussianBlur
         inkscape:collect="always"
         stdDeviation="15.387359"
         id="feGaussianBlur46600" />
    </filter>
    <clipPath
       clipPathUnits="userSpaceOnUse"
       id="clipPath46882">
      <rect
         style="fill:#639bff;fill-opacity:1;stroke-width:1.87499;stroke-linecap:round;stroke-linejoin:round"
         id="rect46884"
         width="68.619598"
         height="279.11218"
         x="-306.65964"
         y="-106.02935" />
    </clipPath>
  </defs>
  <sodipodi:namedview
     id="base"
     pagecolor="#1e222d"
     bordercolor="#666666"
     borderopacity="1.0"
     inkscape:pageopacity="0"
     inkscape:pageshadow="2"
     inkscape:zoom="1.4142136"
     inkscape:cx="161.92745"
     inkscape:cy="176.7767"
     inkscape:current-layer="layer1"
     showgrid="false"
     inkscape:document-units="px"
     inkscape:grid-bbox="true"
     inkscape:window-width="1920"
     inkscape:window-height="1027"
     inkscape:window-x="0"
     inkscape:window-y="0"
     inkscape:window-maximized="1"
     inkscape:snap-bbox="true"
     inkscape:bbox-paths="true"
     inkscape:bbox-nodes="true"
     inkscape:snap-bbox-edge-midpoints="true"
     inkscape:snap-bbox-midpoints="true"
     inkscape:object-paths="true"
     inkscape:snap-intersection-paths="true"
     inkscape:object-nodes="true"
     inkscape:snap-smooth-nodes="true"
     inkscape:snap-midpoints="true"
     inkscape:snap-object-midpoints="true"
     inkscape:snap-center="true"
     inkscape:snap-global="true"
     inkscape:snap-page="true"
     inkscape:snap-grids="true"
     showguides="false"
     inkscape:snap-nodes="true"
     inkscape:snap-others="true"
     inkscape:snap-to-guides="false"
     inkscape:pagecheckerboard="0">
    <inkscape:grid
       type="axonomgrid"
       id="grid4835"
       units="mm"
       empspacing="5"
       spacingy="1.8897637"
       originx="188.20707"
       originy="-33.070877" />
  </sodipodi:namedview>
  <metadata
     id="metadata4157">
    <rdf:RDF>
      <cc:Work
         rdf:about="">
        <dc:format>image/svg+xml</dc:format>
        <dc:type
           rdf:resource="http://purl.org/dc/dcmitype/StillImage" />
      </cc:Work>
    </rdf:RDF>
  </metadata>
  <g
     id="layer1"
     inkscape:label="Layer 1"
     inkscape:groupmode="layer"
     transform="matrix(1.06667,0,0,1.06667,188.20708,35.195821)">
    <rect
       style="fill:#3f3f74;fill-opacity:1;stroke-width:1.87499;stroke-linecap:round;stroke-linejoin:round"
       id="rect7479"
       width="368.2301"
       height="230.31422"
       x="-176.44359"
       y="-32.995979"
       ry="26.574722" />
    <path
       inkscape:connector-curvature="0"
       id="path6332"
       d="m -112.71129,118.20125 8.23359,-14.26097 4.11679,-2.37681 8.233459,4.75363 v 4.75366 l -8.233459,14.26097 -4.11679,2.37684 -8.23359,-4.75366"
       style="fill:#333e4c;fill-opacity:1;stroke:none;stroke-width:5.36635;stroke-linecap:round;stroke-linejoin:round;stroke-miterlimit:4;stroke-dasharray:none;stroke-dashoffset:0;stroke-opacity:1" />
    <path
       inkscape:connector-curvature="0"
       id="path6334"
       d="m -104.4777,103.94028 4.11679,-2.37681 20.583843,11.88413 -4.116795,2.37682 -20.583838,-11.88414"
       style="fill:#799697;fill-opacity:1;stroke:none;stroke-width:5.36635;stroke-linecap:round;stroke-linejoin:round;stroke-miterlimit:4;stroke-dasharray:none;stroke-dashoffset:0;stroke-opacity:1" />
    <path
       inkscape:connector-curvature="0"
       id="path6336"
       d="m -104.4777,103.94028 20.583838,11.88414 -8.233589,14.26097 -20.583839,-11.88414 8.23359,-14.26097"
       style="fill:#576568;fill-opacity:1;stroke:none;stroke-width:5.36635;stroke-linecap:round;stroke-linejoin:round;stroke-miterlimit:4;stroke-dasharray:none;stroke-dashoffset:0;stroke-opacity:1" />
    <path
       inkscape:connector-curvature="0"
       id="path6338"
       d="m -112.71129,118.20125 v 4.75366 l 20.583839,11.88414 v -4.75366 z"
       style="fill:#52575c;fill-opacity:1;stroke:none;stroke-width:5.36635;stroke-linecap:round;stroke-linejoin:round;stroke-miterlimit:4;stroke-dasharray:none;stroke-dashoffset:0;stroke-opacity:1" />
    <path
       inkscape:connector-curvature="0"
       id="path6340"
       d="m -92.127451,120.57808 -4.116661,11.88413 v 4.75366 l 4.116661,7.13049 h 8.233589 l 4.116795,-2.37683 8.23359,-9.50732 4.116795,-11.88413 v -4.75366 l -4.116795,-7.13048 h -8.23359 l -4.116795,2.37682 -8.233589,9.50732"
       style="fill:#3c3f43;fill-opacity:1;stroke:none;stroke-width:5.36635;stroke-linecap:round;stroke-linejoin:round;stroke-miterlimit:4;stroke-dasharray:none;stroke-dashoffset:0;stroke-opacity:1" />
    <path
       inkscape:connector-curvature="0"
       id="path6342"
       d="m -92.127451,144.34636 -4.116661,-2.37683 -4.116798,-7.13048 v -4.75366 l 4.116798,-11.88414 8.233455,-9.50731 4.116795,-2.37684 h 8.23359 l 4.116795,2.37684 h -8.23359 l -4.116795,2.37682 -8.233589,9.50732 -4.116661,11.88413 v 4.75366 l 4.116661,7.13049"
       style="fill:#52575c;fill-opacity:1;stroke:none;stroke-width:5.36635;stroke-linecap:round;stroke-linejoin:round;stroke-miterlimit:4;stroke-dasharray:none;stroke-dashoffset:0;stroke-opacity:1" />
    <path
       inkscape:connector-curvature="0"
       id="path6344"
       d="m -125.06167,92.056149 v 9.507321 l 4.11679,2.37681 h 16.46718 l 4.11679,-2.37681 v -9.507321 l -4.11679,-2.376823 h -16.46718 z"
       style="fill:#475355;fill-opacity:1;stroke:none;stroke-width:5.36635;stroke-linecap:round;stroke-linejoin:round;stroke-miterlimit:4;stroke-dasharray:none;stroke-dashoffset:0;stroke-opacity:1" />
    <path
       inkscape:connector-curvature="0"
       id="path6346"
       d="m -120.94488,103.94028 v -9.507294 -4.75366 h 16.46718 v 14.260954 h -16.46718"
       style="fill:#525d60;fill-opacity:1;stroke:none;stroke-width:5.36635;stroke-linecap:round;stroke-linejoin:round;stroke-miterlimit:4;stroke-dasharray:none;stroke-dashoffset:0;stroke-opacity:1" />
    <path
       sodipodi:nodetypes="ccccc"
       inkscape:connector-curvature="0"
       id="path6348"
       d="m -104.4777,103.94028 4.11679,-2.37681 v -9.507321 l -4.11679,-2.376823 v 14.260954"
       style="fill:#607c7d;fill-opacity:1;stroke:none;stroke-width:5.36635;stroke-linecap:round;stroke-linejoin:round;stroke-miterlimit:4;stroke-dasharray:none;stroke-dashoffset:0;stroke-opacity:1" />
    <path
       sodipodi:nodetypes="ccccccccc"
       inkscape:connector-curvature="0"
       id="path6350"
       d="m -129.17848,80.17202 4.11681,-2.376823 h 24.70076 l 4.116798,2.376823 v 14.260966 l -4.116798,2.376823 h -24.70076 l -4.11681,-2.376823 V 80.17202"
       style="fill:#52575c;fill-opacity:1;stroke:none;stroke-width:5.36635;stroke-linecap:round;stroke-linejoin:round;stroke-miterlimit:4;stroke-dasharray:none;stroke-dashoffset:0;stroke-opacity:1" />
    <path
       inkscape:connector-curvature="0"
       id="path6352"
       d="m -133.29528,68.287877 4.1168,-2.376836 h 32.934368 l 4.116661,2.376836 v 19.014612 l -4.116661,2.376837 h -32.934368 l -4.1168,-2.376837 z"
       style="fill:#576568;fill-opacity:1;stroke:none;stroke-width:5.36635;stroke-linecap:round;stroke-linejoin:round;stroke-miterlimit:4;stroke-dasharray:none;stroke-dashoffset:0;stroke-opacity:1" />
    <path
       style="fill:#799697;fill-opacity:1;stroke:none;stroke-width:5.36635;stroke-linecap:round;stroke-linejoin:round;stroke-miterlimit:4;stroke-dasharray:none;stroke-dashoffset:0;stroke-opacity:1"
       d="m -133.29528,63.534231 4.1168,-2.376837 h 32.934368 l 4.116661,2.376837 v 19.014612 l -4.116661,2.376837 h -32.934368 l -4.1168,-2.376837 z"
       id="path6354"
       inkscape:connector-curvature="0" />
    <path
       inkscape:connector-curvature="0"
       id="path6356"
       d="m -125.06167,73.041537 v 7.130496 h 24.70076 v -7.130496 z"
       style="fill:#0b1a1c;fill-opacity:1;stroke:none;stroke-width:5.36635;stroke-linecap:round;stroke-linejoin:round;stroke-miterlimit:4;stroke-dasharray:none;stroke-dashoffset:0;stroke-opacity:1" />
    <path
       inkscape:connector-curvature="0"
       id="path6358"
       d="m -129.17848,80.17202 h 32.934368 V 65.911054 H -129.17848 V 80.17202"
       style="fill:#193b41;fill-opacity:0.715976;stroke:none;stroke-width:5.36635;stroke-linecap:round;stroke-linejoin:round;stroke-miterlimit:4;stroke-dasharray:none;stroke-dashoffset:0;stroke-opacity:1" />
    <path
       inkscape:connector-curvature="0"
       id="path6360"
       d="m -129.17848,65.911054 4.11681,7.130483 h 24.70076 l 4.116798,-7.130483 h -32.934368"
       style="fill:#193b41;fill-opacity:0.715976;stroke:none;stroke-width:5.36635;stroke-linecap:round;stroke-linejoin:round;stroke-miterlimit:4;stroke-dasharray:none;stroke-dashoffset:0;stroke-opacity:1" />
    <path
       inkscape:connector-curvature="0"
       id="path6364"
       d="m -112.71129,118.20125 8.23359,-14.26097 h -16.46718 l 8.23359,14.26097"
       style="fill:#576568;fill-opacity:0.715976;stroke:none;stroke-width:5.36635;stroke-linecap:round;stroke-linejoin:round;stroke-miterlimit:4;stroke-dasharray:none;stroke-dashoffset:0;stroke-opacity:1" />
    <path
       inkscape:connector-curvature="0"
       id="path6366"
       d="m -120.94488,127.70857 h 16.46718 l -8.23359,-4.75366 -8.23359,4.75366"
       style="fill:#2f3638;fill-opacity:0.715976;stroke:none;stroke-width:5.36635;stroke-linecap:round;stroke-linejoin:round;stroke-miterlimit:4;stroke-dasharray:none;stroke-dashoffset:0;stroke-opacity:1" />
    <path
       sodipodi:nodetypes="ccccccccccc"
       inkscape:connector-curvature="0"
       id="path6368"
       d="m -83.893862,115.82442 -8.233589,14.26097 v 4.75366 l 2.215497,1.27908 3.53146,2.03895 2.486632,1.43562 4.116795,-2.37683 8.23359,-14.26096 v -4.75366 l -8.23359,-4.75365 -4.116795,2.37682"
       style="fill:#2f3638;fill-opacity:0.715976;stroke:none;stroke-width:5.36635;stroke-linecap:round;stroke-linejoin:round;stroke-miterlimit:4;stroke-dasharray:none;stroke-dashoffset:0;stroke-opacity:1" />
    <path
       sodipodi:nodetypes="ccccc"
       inkscape:connector-curvature="0"
       id="path6370"
       d="m -75.660272,120.57808 4.116795,2.37683 v -4.75366 l -4.116795,-2.37683 z"
       style="fill:#282e2f;fill-opacity:1;stroke:none;stroke-width:5.36635;stroke-linecap:round;stroke-linejoin:round;stroke-miterlimit:4;stroke-dasharray:none;stroke-dashoffset:0;stroke-opacity:1" />
    <path
       inkscape:connector-curvature="0"
       id="path6372"
       d="m -75.660272,120.57808 -8.23359,14.26097 4.116795,2.37682 8.23359,-14.26096 -4.116795,-2.37683"
       style="fill:#373f41;fill-opacity:1;stroke:none;stroke-width:5.36635;stroke-linecap:round;stroke-linejoin:round;stroke-miterlimit:4;stroke-dasharray:none;stroke-dashoffset:0;stroke-opacity:1" />
    <path
       inkscape:connector-curvature="0"
       id="path6374"
       d="m -83.893862,134.83905 -4.116795,2.37682 4.116795,2.37683 4.116795,-2.37683 z"
       style="fill:#525d60;fill-opacity:1;stroke:none;stroke-width:5.36635;stroke-linecap:round;stroke-linejoin:round;stroke-miterlimit:4;stroke-dasharray:none;stroke-dashoffset:0;stroke-opacity:1" />
    <path
       inkscape:connector-curvature="0"
       id="path6376"
       d="m -83.893862,115.82442 v 4.75366 l -4.116795,2.37683 4.116795,-7.13049"
       style="fill:#52575c;fill-opacity:1;stroke:none;stroke-width:5.36635;stroke-linecap:round;stroke-linejoin:round;stroke-miterlimit:4;stroke-dasharray:none;stroke-dashoffset:0;stroke-opacity:1" />
    <path
       inkscape:connector-curvature="0"
       id="path6378"
       d="m -83.893862,120.57808 4.116795,-2.37683 v 4.75366 l -4.116795,2.37682 v -4.75365"
       style="fill:#52575c;fill-opacity:1;stroke:none;stroke-width:5.36635;stroke-linecap:round;stroke-linejoin:round;stroke-miterlimit:4;stroke-dasharray:none;stroke-dashoffset:0;stroke-opacity:1" />
    <path
       inkscape:connector-curvature="0"
       id="path6380"
       d="m -79.777067,118.20125 4.116795,-2.37683 -4.116795,-2.37682 z"
       style="fill:#52575c;fill-opacity:1;stroke:none;stroke-width:5.36635;stroke-linecap:round;stroke-linejoin:round;stroke-miterlimit:4;stroke-dasharray:none;stroke-dashoffset:0;stroke-opacity:1" />
    <path
       inkscape:connector-curvature="0"
       id="path6382"
       d="m -79.777067,122.95491 v 4.75366 l 4.116795,-7.13049 -4.116795,2.37683"
       style="fill:#52575c;fill-opacity:1;stroke:none;stroke-width:5.36635;stroke-linecap:round;stroke-linejoin:round;stroke-miterlimit:4;stroke-dasharray:none;stroke-dashoffset:0;stroke-opacity:1" />
    <path
       inkscape:connector-curvature="0"
       id="path6387"
       d="m -88.010657,127.70857 4.116795,-2.37684 v 4.75366 l -4.116795,2.37682 z"
       style="fill:#52575c;fill-opacity:1;stroke:none;stroke-width:5.36635;stroke-linecap:round;stroke-linejoin:round;stroke-miterlimit:4;stroke-dasharray:none;stroke-dashoffset:0;stroke-opacity:1" />
    <path
       inkscape:connector-curvature="0"
       id="path6391"
       d="m -88.010657,127.70857 -4.116794,2.37682 4.116794,-7.13048 z"
       style="fill:#52575c;fill-opacity:1;stroke:none;stroke-width:5.36635;stroke-linecap:round;stroke-linejoin:round;stroke-miterlimit:4;stroke-dasharray:none;stroke-dashoffset:0;stroke-opacity:1" />
    <path
       inkscape:connector-curvature="0"
       id="path6395"
       d="m -92.127451,134.83905 4.116794,2.37682 v -4.75366 z"
       style="fill:#52575c;fill-opacity:1;stroke:none;stroke-width:5.36635;stroke-linecap:round;stroke-linejoin:round;stroke-miterlimit:4;stroke-dasharray:none;stroke-dashoffset:0;stroke-opacity:1" />
    <path
       inkscape:connector-curvature="0"
       id="path6399"
       d="m -83.893862,130.08539 v 4.75366 l 4.116795,-7.13048 -4.116795,2.37682"
       style="fill:#52575c;fill-opacity:1;stroke:none;stroke-width:5.36635;stroke-linecap:round;stroke-linejoin:round;stroke-miterlimit:4;stroke-dasharray:none;stroke-dashoffset:0;stroke-opacity:1" />
    <path
       inkscape:connector-curvature="0"
       id="path6403"
       d="m -133.29528,139.5927 v 4.75366 l 20.58399,11.88414 v -4.75366 z"
       style="fill:#52575c;fill-opacity:1;stroke:none;stroke-width:5.36635;stroke-linecap:round;stroke-linejoin:round;stroke-miterlimit:4;stroke-dasharray:none;stroke-dashoffset:0;stroke-opacity:1" />
    <path
       inkscape:connector-curvature="0"
       id="path6407"
       d="m -112.71129,151.47684 16.467178,-9.50731 4.116661,2.37683 -20.583839,11.88414"
       style="fill:#3d4145;fill-opacity:1;stroke:none;stroke-width:5.36635;stroke-linecap:round;stroke-linejoin:round;stroke-miterlimit:4;stroke-dasharray:none;stroke-dashoffset:0;stroke-opacity:1" />
    <path
       sodipodi:nodetypes="ccccccccc"
       inkscape:connector-curvature="0"
       id="path6411"
       d="m -120.94488,141.96953 8.23359,-4.75366 4.11679,2.37683 4.1168,-2.37683 c -1.4e-4,-3.1691 0,-6.33821 0,-9.5073 h -16.46718 l -4.11679,-2.37684 v 14.26097 z"
       style="fill:#323a3d;fill-opacity:0.717647;stroke:none;stroke-width:5.36635;stroke-linecap:round;stroke-linejoin:round;stroke-miterlimit:4;stroke-dasharray:none;stroke-dashoffset:0;stroke-opacity:1" />
    <path
       inkscape:connector-curvature="0"
       id="path6415"
       d="m -125.06167,125.33173 v 14.26097 l 4.11679,2.37683 v -14.26096 l -4.11679,-2.37684"
       style="fill:#384144;fill-opacity:0.717647;stroke:none;stroke-width:5.36635;stroke-linecap:round;stroke-linejoin:round;stroke-miterlimit:4;stroke-dasharray:none;stroke-dashoffset:0;stroke-opacity:1" />
    <path
       sodipodi:nodetypes="cccccccccccc"
       inkscape:connector-curvature="0"
       id="path6418"
       d="m -133.29528,139.5927 8.23361,-4.75365 v 4.75365 l 4.11679,2.37683 8.23359,-4.75366 4.11679,2.37683 4.1168,-2.37683 v -4.75366 c 1.37217,0.79229 2.74448,1.58456 4.11679,2.37684 l 4.116798,7.13048 -16.467178,9.50731 -20.58399,-11.88414"
       style="fill:#384144;fill-opacity:0.717647;stroke:none;stroke-width:5.36635;stroke-linecap:round;stroke-linejoin:round;stroke-miterlimit:4;stroke-dasharray:none;stroke-dashoffset:0;stroke-opacity:1" />
    <path
       inkscape:connector-curvature="0"
       id="path6420"
       d="m -108.5945,125.33173 v 19.01463 l 4.1168,2.37682 8.233588,-4.75365 -4.116798,-7.13048 v -4.75366 l -8.23359,-4.75366"
       style="fill:#000000;fill-opacity:0.0946746;stroke:none;stroke-width:5.36635;stroke-linecap:round;stroke-linejoin:round;stroke-miterlimit:4;stroke-dasharray:none;stroke-dashoffset:0;stroke-opacity:1" />
    <path
       inkscape:connector-curvature="0"
       id="path6422"
       d="m -149.76246,153.85366 v 4.75366 l 4.1168,2.37682 v -4.75364 z"
       style="fill:#ca4646;fill-opacity:1;stroke:none;stroke-width:5.36635;stroke-linecap:round;stroke-linejoin:round;stroke-miterlimit:4;stroke-dasharray:none;stroke-dashoffset:0;stroke-opacity:1" />
    <path
       inkscape:connector-curvature="0"
       id="path6424"
       d="m -149.76246,153.85366 12.35039,-7.13048 4.11679,2.37682 -12.35038,7.1305 z"
       style="fill:#7b2d2f;fill-opacity:1;stroke:none;stroke-width:5.36635;stroke-linecap:round;stroke-linejoin:round;stroke-miterlimit:4;stroke-dasharray:none;stroke-dashoffset:0;stroke-opacity:1" />
    <path
       inkscape:connector-curvature="0"
       id="path6426"
       d="m -145.64566,160.98414 12.35038,-7.13048 V 149.1 l -12.35038,7.1305 z"
       style="fill:#462836;fill-opacity:1;stroke:none;stroke-width:5.36635;stroke-linecap:round;stroke-linejoin:round;stroke-miterlimit:4;stroke-dasharray:none;stroke-dashoffset:0;stroke-opacity:1" />
    <path
       sodipodi:nodetypes="ccccc"
       inkscape:connector-curvature="0"
       id="path6428"
       d="m -133.29528,106.3171 v 0 l 4.1168,7.1305 v 4.75365 l -4.1168,-7.13049"
       style="fill:#576568;fill-opacity:1;stroke:none;stroke-width:5.36635;stroke-linecap:round;stroke-linejoin:round;stroke-miterlimit:4;stroke-dasharray:none;stroke-dashoffset:0;stroke-opacity:1" />
    <path
       inkscape:connector-curvature="0"
       id="path6434"
       d="m -120.94488,127.70857 -4.11679,-7.13049 -4.11681,-2.37683 4.11681,7.13048 z"
       style="fill:#52575c;fill-opacity:1;stroke:none;stroke-width:5.36635;stroke-linecap:round;stroke-linejoin:round;stroke-miterlimit:4;stroke-dasharray:none;stroke-dashoffset:0;stroke-opacity:1" />
    <path
       inkscape:connector-curvature="0"
       id="path6442"
       d="m -129.17848,118.20125 4.11681,2.37683 12.35038,2.37683 -8.23359,4.75366 -4.11679,-2.37684 z"
       style="fill:#2a3334;fill-opacity:0.662722;stroke:none;stroke-width:5.36635;stroke-linecap:round;stroke-linejoin:round;stroke-miterlimit:4;stroke-dasharray:none;stroke-dashoffset:0;stroke-opacity:1" />
    <path
       inkscape:connector-curvature="0"
       id="path6444"
       d="m -133.29528,120.57808 4.1168,2.37683 4.11681,-2.37683 v -4.75366 z"
       style="fill:#698788;fill-opacity:1;stroke:none;stroke-width:5.36635;stroke-linecap:round;stroke-linejoin:round;stroke-miterlimit:4;stroke-dasharray:none;stroke-dashoffset:0;stroke-opacity:1" />
    <path
       inkscape:connector-curvature="0"
       id="path6446"
       d="m -92.127451,134.83905 4.116794,2.37682 4.116795,-2.37682 8.23359,-14.26097 v -4.75366 l -4.116795,-2.37682 -4.116795,2.37682 -8.233589,14.26097 z"
       style="fill:url(#linearGradient6539);fill-opacity:1;stroke:none;stroke-width:5.36635;stroke-linecap:round;stroke-linejoin:round;stroke-miterlimit:4;stroke-dasharray:none;stroke-dashoffset:0;stroke-opacity:1" />
    <path
       sodipodi:nodetypes="cccccc"
       inkscape:connector-curvature="0"
       id="path6448"
       d="m -133.29528,106.3171 v -4.75363 l -4.11679,-2.376838 v 4.753648 l 4.11679,7.13048 z"
       style="fill:#799697;fill-opacity:0.662722;stroke:none;stroke-width:5.36635;stroke-linecap:round;stroke-linejoin:round;stroke-miterlimit:4;stroke-dasharray:none;stroke-dashoffset:0;stroke-opacity:1" />
    <g
       transform="matrix(1.3415873,0,0,1.3415873,2089.7698,529.09671)"
       id="g6785">
      <path
         style="opacity:1;fill:url(#radialGradient6807);fill-opacity:1;stroke:none;stroke-width:4;stroke-linecap:round;stroke-linejoin:round;stroke-miterlimit:4;stroke-dasharray:none;stroke-dashoffset:0;stroke-opacity:1"
         d="m -1657.0407,-315.13386 v 10.62992 l 9.2057,5.31496 v -10.62992 z"
         id="path6787"
         inkscape:connector-curvature="0" />
      <path
         sodipodi:nodetypes="ccccccc"
         style="opacity:1;fill:#799697;fill-opacity:1;stroke:none;stroke-width:4;stroke-linecap:round;stroke-linejoin:round;stroke-miterlimit:4;stroke-dasharray:none;stroke-dashoffset:0;stroke-opacity:1"
         d="m -1657.0407,-315.13386 3.0686,-1.77165 3.0685,-1.77166 3.0686,1.77166 3.0686,5.31496 -3.0686,1.77165 z"
         id="path6789"
         inkscape:connector-curvature="0" />
      <path
         sodipodi:nodetypes="ccccccc"
         style="opacity:1;fill:#3c4249;fill-opacity:1;stroke:none;stroke-width:4;stroke-linecap:round;stroke-linejoin:round;stroke-miterlimit:4;stroke-dasharray:none;stroke-dashoffset:0;stroke-opacity:1"
         d="m -1647.835,-309.8189 v 10.62992 l 3.0686,-1.77165 3.0686,-1.77166 v -3.5433 l -3.0686,-5.31496 -3.0686,1.77165"
         id="path6791"
         inkscape:connector-curvature="0" />
      <path
         inkscape:connector-curvature="0"
         id="path6793"
         d="m -1657.0407,-315.13386 3.0686,-1.77165 3.0685,-1.77166 3.0686,1.77166 3.0686,5.31496 -3.0686,1.77165 z"
         style="opacity:1;fill:url(#linearGradient6795);fill-opacity:1;stroke:none;stroke-width:4;stroke-linecap:round;stroke-linejoin:round;stroke-miterlimit:4;stroke-dasharray:none;stroke-dashoffset:0;stroke-opacity:1"
         sodipodi:nodetypes="ccccccc" />
    </g>
    <path
       sodipodi:nodetypes="ccccc"
       inkscape:connector-curvature="0"
       id="path6430"
       d="m -129.17848,113.44759 -8.23359,4.75366 4.11679,2.37682 8.23361,-4.75365 z"
       style="fill:#535f68;fill-opacity:1;stroke:none;stroke-width:5.36635;stroke-linecap:round;stroke-linejoin:round;stroke-miterlimit:4;stroke-dasharray:none;stroke-dashoffset:0;stroke-opacity:1" />
    <path
       inkscape:connector-curvature="0"
       id="path6436"
       d="m -133.29528,153.85366 4.1168,-2.37682 v -28.52193 l 4.11681,-2.37684 v -4.75365 l -8.23361,4.75365 z"
       style="fill:#799697;fill-opacity:1;stroke:none;stroke-width:5.36635;stroke-linecap:round;stroke-linejoin:round;stroke-miterlimit:4;stroke-dasharray:none;stroke-dashoffset:0;stroke-opacity:1" />
    <path
       inkscape:connector-curvature="0"
       id="path6432"
       d="m -137.41207,146.72318 v -28.52193 l 4.11679,2.37682 V 149.1 l -4.11679,-2.37682"
       style="fill:#576568;fill-opacity:1;stroke:none;stroke-width:5.36635;stroke-linecap:round;stroke-linejoin:round;stroke-miterlimit:4;stroke-dasharray:none;stroke-dashoffset:0;stroke-opacity:1" />
    <path
       sodipodi:nodetypes="cccccc"
       inkscape:connector-curvature="0"
       id="path6450"
       d="m -137.41207,99.186632 8.23359,-4.753646 4.11681,2.376823 v 4.753661 l -8.23361,4.75363 v -4.75363"
       style="fill:#444e50;fill-opacity:0.662722;stroke:none;stroke-width:5.36635;stroke-linecap:round;stroke-linejoin:round;stroke-miterlimit:4;stroke-dasharray:none;stroke-dashoffset:0;stroke-opacity:1" />
    <path
       inkscape:connector-curvature="0"
       id="path6452"
       d="m -133.29528,101.56347 h 8.23361 l -8.23361,4.75363 z"
       style="fill:#4d595c;fill-opacity:0.662722;stroke:none;stroke-width:5.36635;stroke-linecap:round;stroke-linejoin:round;stroke-miterlimit:4;stroke-dasharray:none;stroke-dashoffset:0;stroke-opacity:1" />
    <path
       inkscape:connector-curvature="0"
       id="path6454"
       d="m -137.41207,94.432986 4.11679,-2.376837 4.1168,2.376837 -4.1168,2.376823 z"
       style="fill:#444d50;fill-opacity:0.662745;stroke:none;stroke-width:5.36635;stroke-linecap:round;stroke-linejoin:round;stroke-miterlimit:4;stroke-dasharray:none;stroke-dashoffset:0;stroke-opacity:1" />
    <path
       inkscape:connector-curvature="0"
       id="path6456"
       d="m -137.41207,94.432986 v 4.753646 l 4.11679,-2.376823 z"
       style="fill:#373b3f;fill-opacity:0.662722;stroke:none;stroke-width:5.36635;stroke-linecap:round;stroke-linejoin:round;stroke-miterlimit:4;stroke-dasharray:none;stroke-dashoffset:0;stroke-opacity:1" />
    <path
       inkscape:connector-curvature="0"
       id="path6458"
       d="m -137.41207,94.432986 4.11679,-2.376837 8.23361,4.75366 v 4.753661 h -8.23361 l -4.11679,-2.376838 4.11679,-2.376823 -4.11679,-2.376823"
       style="fill:url(#linearGradient6541);fill-opacity:1;stroke:none;stroke-width:5.36635;stroke-linecap:round;stroke-linejoin:round;stroke-miterlimit:4;stroke-dasharray:none;stroke-dashoffset:0;stroke-opacity:1" />
    <path
       sodipodi:nodetypes="cccccccccc"
       inkscape:connector-curvature="0"
       id="path6460"
       d="m -129.17848,65.911041 v -76.05849 l 4.11681,-2.376823 4.11679,2.376823 4.11679,-2.376823 4.1168,2.376823 V 4.1135173 l 16.467178,9.5073197 v 52.290204 h -32.934368"
       style="fill:#eb7272;fill-opacity:0.130178;stroke:none;stroke-width:5.36635;stroke-linecap:round;stroke-linejoin:round;stroke-miterlimit:4;stroke-dasharray:none;stroke-dashoffset:0;stroke-opacity:1" />
    <g
       transform="matrix(1.3415873,0,0,1.3415873,2048.6019,543.35766)"
       id="g6462">
      <path
         style="opacity:1;fill:#4a4367;fill-opacity:1;stroke:none;stroke-width:4;stroke-linecap:round;stroke-linejoin:round;stroke-miterlimit:4;stroke-dasharray:none;stroke-dashoffset:0;stroke-opacity:1"
         d="m -1611.0118,-387.77165 12.2744,-7.08662 -15.343,-8.85827 -3.0686,1.77166 3.0686,1.77165 -9.2058,5.31496 12.2744,7.08662 3.0686,-1.77166 -9.2058,-5.31496 6.1372,-3.5433 6.1372,3.5433 -9.2058,5.31496 3.0686,1.77166 12.2744,-7.08662 -3.0686,-1.77165 -3.0686,1.77165"
         id="path6464"
         inkscape:connector-curvature="0" />
      <path
         style="opacity:1;fill:#75c5e3;fill-opacity:1;stroke:none;stroke-width:4;stroke-linecap:round;stroke-linejoin:round;stroke-miterlimit:4;stroke-dasharray:none;stroke-dashoffset:0;stroke-opacity:1"
         d="m -1623.2862,-394.85827 v 3.54331 l 12.2744,7.08661 v -3.5433 l -12.2744,-7.08662"
         id="path6466"
         inkscape:connector-curvature="0" />
      <path
         style="opacity:1;fill:#6167b6;fill-opacity:1;stroke:none;stroke-width:4;stroke-linecap:round;stroke-linejoin:round;stroke-miterlimit:4;stroke-dasharray:none;stroke-dashoffset:0;stroke-opacity:1"
         d="m -1611.0118,-384.22835 12.2744,-7.08661 v -3.54331 l -12.2744,7.08662 v 3.5433"
         id="path6468"
         inkscape:connector-curvature="0" />
      <path
         style="opacity:1;fill:#6167b6;fill-opacity:1;stroke:none;stroke-width:4;stroke-linecap:round;stroke-linejoin:round;stroke-miterlimit:4;stroke-dasharray:none;stroke-dashoffset:0;stroke-opacity:1"
         d="m -1617.149,-401.94488 v 3.54331 l 3.0686,-1.77166"
         id="path6470"
         inkscape:connector-curvature="0" />
      <path
         style="opacity:1;fill:#75c5e3;fill-opacity:1;stroke:none;stroke-width:4;stroke-linecap:round;stroke-linejoin:round;stroke-miterlimit:4;stroke-dasharray:none;stroke-dashoffset:0;stroke-opacity:1"
         d="m -1611.0118,-394.85827 3.0686,1.77166 3.0686,-1.77166 -6.1372,-3.5433 z"
         id="path6472"
         inkscape:connector-curvature="0" />
      <path
         style="opacity:1;fill:#6167b6;fill-opacity:1;stroke:none;stroke-width:4;stroke-linecap:round;stroke-linejoin:round;stroke-miterlimit:4;stroke-dasharray:none;stroke-dashoffset:0;stroke-opacity:1"
         d="m -1617.149,-394.85827 6.1372,-3.5433 v 3.5433 l -3.0686,1.77166 z"
         id="path6474"
         inkscape:connector-curvature="0" />
    </g>
    <g
       transform="matrix(1.3415873,0,0,1.3415873,2048.6019,543.35766)"
       id="g6476">
      <path
         style="opacity:1;fill:#f3821b;fill-opacity:1;stroke:none;stroke-width:4;stroke-linecap:round;stroke-linejoin:round;stroke-miterlimit:4;stroke-dasharray:none;stroke-dashoffset:0;stroke-opacity:1"
         d="m -1611.0118,-359.4252 v 3.54331 l 3.0686,8.85827 v -7.08662 l -3.0686,-5.31496"
         id="path6478"
         inkscape:connector-curvature="0" />
      <path
         style="opacity:1;fill:#8a3939;fill-opacity:1;stroke:none;stroke-width:4;stroke-linecap:round;stroke-linejoin:round;stroke-miterlimit:4;stroke-dasharray:none;stroke-dashoffset:0;stroke-opacity:1"
         d="m -1623.2862,-352.33858 21.4802,1.77165 3.0686,-1.77165 -9.2058,-8.85827 -3.0686,1.77165 3.0686,5.31496 h -12.2744 z"
         id="path6480"
         inkscape:connector-curvature="0"
         sodipodi:nodetypes="cccccccc" />
      <path
         style="opacity:1;fill:#c94929;fill-opacity:1;stroke:none;stroke-width:4;stroke-linecap:round;stroke-linejoin:round;stroke-miterlimit:4;stroke-dasharray:none;stroke-dashoffset:0;stroke-opacity:1"
         d="m -1623.2862,-352.33858 v 3.5433 l 21.4802,1.77166 v -3.54331 l -21.4802,-1.77165"
         id="path6482"
         inkscape:connector-curvature="0" />
      <path
         style="opacity:1;fill:#f3821b;fill-opacity:1;stroke:none;stroke-width:4;stroke-linecap:round;stroke-linejoin:round;stroke-miterlimit:4;stroke-dasharray:none;stroke-dashoffset:0;stroke-opacity:1"
         d="m -1601.806,-347.02362 3.0686,-1.77166 v -3.5433 l -3.0686,1.77165 z"
         id="path6484"
         inkscape:connector-curvature="0" />
    </g>
    <g
       transform="matrix(1.3415873,0,0,1.3415873,2048.6019,548.11132)"
       id="g6486">
      <path
         style="opacity:1;fill:#394451;fill-opacity:1;stroke:none;stroke-width:4;stroke-linecap:round;stroke-linejoin:round;stroke-miterlimit:4;stroke-dasharray:none;stroke-dashoffset:0;stroke-opacity:1"
         d="m -1611.0118,-362.9685 -12.2744,-7.08662 3.0686,-1.77165 9.2058,5.31496 9.2058,-5.31496 3.0686,1.77165 -12.2744,7.08662"
         id="path6488"
         inkscape:connector-curvature="0" />
      <path
         style="opacity:1;fill:#394451;fill-opacity:1;stroke:none;stroke-width:4;stroke-linecap:round;stroke-linejoin:round;stroke-miterlimit:4;stroke-dasharray:none;stroke-dashoffset:0;stroke-opacity:1"
         d="m -1620.2176,-371.82677 9.2058,-5.31496 12.2744,7.08661 -3.0686,1.77166 -9.2058,-5.31497 -9.2058,5.31497 z"
         id="path6490"
         inkscape:connector-curvature="0" />
      <path
         style="opacity:1;fill:#4a6b6f;fill-opacity:1;stroke:none;stroke-width:4;stroke-linecap:round;stroke-linejoin:round;stroke-miterlimit:4;stroke-dasharray:none;stroke-dashoffset:0;stroke-opacity:1"
         d="m -1611.0118,-362.9685 v 3.5433 l 12.2744,-7.08661 v -3.54331 z"
         id="path6492"
         inkscape:connector-curvature="0" />
      <path
         style="opacity:1;fill:#63b465;fill-opacity:1;stroke:none;stroke-width:4;stroke-linecap:round;stroke-linejoin:round;stroke-miterlimit:4;stroke-dasharray:none;stroke-dashoffset:0;stroke-opacity:1"
         d="m -1623.2862,-370.05512 v 3.54331 l 12.2744,7.08661 v -3.5433 z"
         id="path6494"
         inkscape:connector-curvature="0" />
      <path
         style="opacity:1;fill:#63b465;fill-opacity:1;stroke:none;stroke-width:4;stroke-linecap:round;stroke-linejoin:round;stroke-miterlimit:4;stroke-dasharray:none;stroke-dashoffset:0;stroke-opacity:1"
         d="m -1611.0118,-373.59843 v 3.54331 l 3.0686,1.77166 3.0686,-1.77166 z"
         id="path6496"
         inkscape:connector-curvature="0" />
      <path
         style="opacity:1;fill:#4a6b6f;fill-opacity:1;stroke:none;stroke-width:4;stroke-linecap:round;stroke-linejoin:round;stroke-miterlimit:4;stroke-dasharray:none;stroke-dashoffset:0;stroke-opacity:1"
         d="m -1611.0118,-370.05512 -3.0686,1.77166 -3.0686,-1.77166 6.1372,-3.54331 v 3.54331"
         id="path6498"
         inkscape:connector-curvature="0" />
    </g>
    <g
       transform="matrix(1.3415873,0,0,1.3415873,2046.5435,544.54608)"
       id="g6500">
      <path
         style="opacity:1;fill:#553e71;fill-opacity:1;stroke:none;stroke-width:4;stroke-linecap:round;stroke-linejoin:round;stroke-miterlimit:4;stroke-dasharray:none;stroke-dashoffset:0;stroke-opacity:1"
         d="m -1601.806,-375.37008 3.0686,-1.77165 -12.2744,-7.08662 -3.0686,1.77166"
         id="path6503"
         inkscape:connector-curvature="0" />
      <path
         style="opacity:1;fill:#553e71;fill-opacity:1;stroke:none;stroke-width:4;stroke-linecap:round;stroke-linejoin:round;stroke-miterlimit:4;stroke-dasharray:none;stroke-dashoffset:0;stroke-opacity:1"
         d="m -1620.2176,-386 3.0686,1.77165 3.0686,-1.77165 -3.0686,-1.77165"
         id="path6505"
         inkscape:connector-curvature="0" />
      <path
         style="opacity:1;fill:#d87296;fill-opacity:1;stroke:none;stroke-width:4;stroke-linecap:round;stroke-linejoin:round;stroke-miterlimit:4;stroke-dasharray:none;stroke-dashoffset:0;stroke-opacity:1"
         d="m -1620.2176,-386 v 3.54331 l 3.0686,1.77165 v -3.54331 L -1620.2176,-386"
         id="path6507"
         inkscape:connector-curvature="0" />
      <path
         style="opacity:1;fill:#9e4981;fill-opacity:1;stroke:none;stroke-width:4;stroke-linecap:round;stroke-linejoin:round;stroke-miterlimit:4;stroke-dasharray:none;stroke-dashoffset:0;stroke-opacity:1"
         d="m -1617.149,-380.68504 3.0686,-1.77165 V -386 l -3.0686,1.77165 v 3.54331"
         id="path6509"
         inkscape:connector-curvature="0" />
      <path
         style="opacity:1;fill:#d87296;fill-opacity:1;stroke:none;stroke-width:4;stroke-linecap:round;stroke-linejoin:round;stroke-miterlimit:4;stroke-dasharray:none;stroke-dashoffset:0;stroke-opacity:1"
         d="m -1614.0804,-382.45669 v 3.5433 l 12.2744,7.08662 v -3.54331 l -12.2744,-7.08661"
         id="path6511"
         inkscape:connector-curvature="0" />
      <path
         style="opacity:1;fill:#9e4981;fill-opacity:1;stroke:none;stroke-width:4;stroke-linecap:round;stroke-linejoin:round;stroke-miterlimit:4;stroke-dasharray:none;stroke-dashoffset:0;stroke-opacity:1"
         d="m -1601.806,-371.82677 3.0686,-1.77166 v -3.5433 l -3.0686,1.77165 z"
         id="path6513"
         inkscape:connector-curvature="0" />
    </g>
    <g
       id="g6515"
       transform="matrix(1.3415873,0,0,1.3415873,2048.602,533.85036)">
      <path
         style="opacity:1;fill:#ab2c2c;fill-opacity:1;stroke:none;stroke-width:4;stroke-linecap:round;stroke-linejoin:round;stroke-miterlimit:4;stroke-dasharray:none;stroke-dashoffset:0;stroke-opacity:1"
         d="m -1623.2862,-405.48819 3.0686,-1.77165 3.0686,1.77165 3.0686,-1.77165 3.0686,1.77165 -3.0686,1.77165 3.0686,1.77166 -3.0686,1.77165 -3.0686,-1.77165 -3.0686,1.77165 -3.0686,-1.77165 3.0686,-1.77166 z"
         id="path6517"
         inkscape:connector-curvature="0" />
      <path
         style="opacity:1;fill:#eb7272;fill-opacity:1;stroke:none;stroke-width:4;stroke-linecap:round;stroke-linejoin:round;stroke-miterlimit:4;stroke-dasharray:none;stroke-dashoffset:0;stroke-opacity:1"
         d="m -1623.2862,-401.94488 v 3.54331 l 3.0686,1.77165 v -3.54331 l -3.0686,-1.77165"
         id="path6519"
         inkscape:connector-curvature="0" />
      <path
         style="opacity:1;fill:#eb7272;fill-opacity:1;stroke:none;stroke-width:4;stroke-linecap:round;stroke-linejoin:round;stroke-miterlimit:4;stroke-dasharray:none;stroke-dashoffset:0;stroke-opacity:1"
         d="m -1617.149,-401.94488 v 3.54331 l 3.0686,1.77165 v -3.54331 l -3.0686,-1.77165"
         id="path6521"
         inkscape:connector-curvature="0" />
      <path
         style="opacity:1;fill:#eb7272;fill-opacity:1;stroke:none;stroke-width:4;stroke-linecap:round;stroke-linejoin:round;stroke-miterlimit:4;stroke-dasharray:none;stroke-dashoffset:0;stroke-opacity:1"
         d="m -1623.2862,-405.48819 v 3.54331 l 3.0686,-1.77166 -3.0686,-1.77165"
         id="path6523"
         inkscape:connector-curvature="0" />
      <path
         style="opacity:1;fill:#bd4a4a;fill-opacity:1;stroke:none;stroke-width:4;stroke-linecap:round;stroke-linejoin:round;stroke-miterlimit:4;stroke-dasharray:none;stroke-dashoffset:0;stroke-opacity:1"
         d="m -1620.2176,-396.62992 3.0686,-1.77165 v -3.54331 l -3.0686,1.77165 z"
         id="path6525"
         inkscape:connector-curvature="0" />
      <path
         style="opacity:1;fill:#bd4a4a;fill-opacity:1;stroke:none;stroke-width:4;stroke-linecap:round;stroke-linejoin:round;stroke-miterlimit:4;stroke-dasharray:none;stroke-dashoffset:0;stroke-opacity:1"
         d="m -1614.0804,-396.62992 3.0686,-1.77165 v -3.54331 l -3.0686,1.77165 v 3.54331"
         id="path6527"
         inkscape:connector-curvature="0" />
      <path
         style="opacity:1;fill:#bd4a4a;fill-opacity:1;stroke:none;stroke-width:4;stroke-linecap:round;stroke-linejoin:round;stroke-miterlimit:4;stroke-dasharray:none;stroke-dashoffset:0;stroke-opacity:1"
         d="m -1611.0118,-405.48819 v 3.54331 l -3.0686,-1.77166 3.0686,-1.77165"
         id="path6529"
         inkscape:connector-curvature="0" />
    </g>
    <path
       style="fill:#353555;fill-opacity:1;stroke:none;stroke-width:5.36635;stroke-linecap:round;stroke-linejoin:round;stroke-miterlimit:4;stroke-dasharray:none;stroke-dashoffset:0;stroke-opacity:1"
       d="m -83.893728,125.33174 12.350251,7.13049 -4.116661,2.37682 -12.350384,-7.13048 z"
       id="path6543"
       inkscape:connector-curvature="0" />
    <path
       style="fill:#38668b;fill-opacity:1;stroke:none;stroke-width:5.36635;stroke-linecap:round;stroke-linejoin:round;stroke-miterlimit:4;stroke-dasharray:none;stroke-dashoffset:0;stroke-opacity:1"
       d="m -75.660138,134.83905 v 4.75366 l 4.116661,-2.37684 v -4.75364"
       id="path6545"
       inkscape:connector-curvature="0" />
    <path
       style="fill:#2ba0b5;fill-opacity:1;stroke:none;stroke-width:5.36635;stroke-linecap:round;stroke-linejoin:round;stroke-miterlimit:4;stroke-dasharray:none;stroke-dashoffset:0;stroke-opacity:1"
       d="m -88.010522,127.70857 v 4.75366 l 12.350384,7.13048 v -4.75366 l -12.350384,-7.13048"
       id="path6547"
       inkscape:connector-curvature="0" />
    <g
       id="g6582"
       transform="matrix(1.3415873,0,0,1.3415873,2069.1858,807.18557)">
      <path
         inkscape:connector-curvature="0"
         id="path6549"
         d="m -1592.6003,-497.61417 6.1372,-10.62992 6.1372,3.5433 -6.1372,10.62992 -6.1372,-3.5433"
         style="opacity:1;fill:#553e71;fill-opacity:1;stroke:none;stroke-width:4;stroke-linecap:round;stroke-linejoin:round;stroke-miterlimit:4;stroke-dasharray:none;stroke-dashoffset:0;stroke-opacity:1" />
      <path
         inkscape:connector-curvature="0"
         id="path6551"
         d="m -1580.3259,-504.70079 3.0686,1.77166 -6.1372,10.62992 -3.0686,-1.77166"
         style="opacity:1;fill:#353555;fill-opacity:1;stroke:none;stroke-width:4;stroke-linecap:round;stroke-linejoin:round;stroke-miterlimit:4;stroke-dasharray:none;stroke-dashoffset:0;stroke-opacity:1" />
      <path
         inkscape:connector-curvature="0"
         id="path6553"
         d="m -1589.5317,-499.38583 3.0686,1.77166 3.0686,-5.31496 -3.0686,-1.77166 -3.0686,5.31496"
         style="opacity:1;fill:#353555;fill-opacity:1;stroke:none;stroke-width:4;stroke-linecap:round;stroke-linejoin:round;stroke-miterlimit:4;stroke-dasharray:none;stroke-dashoffset:0;stroke-opacity:1" />
    </g>
    <g
       id="g6576"
       transform="matrix(1.3415873,0,0,1.3415873,2081.5361,804.80874)">
      <g
         id="g6572">
        <path
           style="opacity:1;fill:#387673;fill-opacity:1;stroke:none;stroke-width:4;stroke-linecap:round;stroke-linejoin:round;stroke-miterlimit:4;stroke-dasharray:none;stroke-dashoffset:0;stroke-opacity:1"
           d="m -1604.8746,-490.52756 v 10.62992 l 3.0686,1.77166 v -10.62993 l -3.0686,-1.77165"
           id="path6555"
           inkscape:connector-curvature="0" />
        <path
           style="opacity:1;fill:#2f514a;fill-opacity:1;stroke:none;stroke-width:4;stroke-linecap:round;stroke-linejoin:round;stroke-miterlimit:4;stroke-dasharray:none;stroke-dashoffset:0;stroke-opacity:1"
           d="m -1601.806,-478.12598 3.0686,-1.77166 v -10.62992 l -3.0686,1.77165 z"
           id="path6557"
           inkscape:connector-curvature="0" />
      </g>
      <path
         inkscape:connector-curvature="0"
         id="path6559"
         d="m -1604.8746,-490.52756 3.0686,-1.77165 3.0686,1.77165 -3.0686,1.77165 z"
         style="opacity:1;fill:#55b09e;fill-opacity:1;stroke:none;stroke-width:4;stroke-linecap:round;stroke-linejoin:round;stroke-miterlimit:4;stroke-dasharray:none;stroke-dashoffset:0;stroke-opacity:1" />
    </g>
    <g
       id="g6567"
       transform="matrix(1.3415873,0,0,1.3415873,2040.3684,823.82338)">
      <path
         inkscape:connector-curvature="0"
         id="path6561"
         d="m -1592.6003,-490.52756 h 12.2744 v 7.08662 h -12.2744 v -7.08662"
         style="opacity:1;fill:#c94929;fill-opacity:1;stroke:none;stroke-width:4;stroke-linecap:round;stroke-linejoin:round;stroke-miterlimit:4;stroke-dasharray:none;stroke-dashoffset:0;stroke-opacity:1" />
      <path
         inkscape:connector-curvature="0"
         id="path6563"
         d="m -1592.6003,-483.44094 v 3.5433 h 12.2744 v -3.5433 h -12.2744"
         style="opacity:1;fill:#8a3939;fill-opacity:1;stroke:none;stroke-width:4;stroke-linecap:round;stroke-linejoin:round;stroke-miterlimit:4;stroke-dasharray:none;stroke-dashoffset:0;stroke-opacity:1" />
      <path
         inkscape:connector-curvature="0"
         id="path6565"
         d="m -1589.5317,-488.75591 v 3.54331 h 6.1372 v -3.54331 h -6.1372"
         style="opacity:1;fill:#8a3939;fill-opacity:1;stroke:none;stroke-width:4;stroke-linecap:round;stroke-linejoin:round;stroke-miterlimit:4;stroke-dasharray:none;stroke-dashoffset:0;stroke-opacity:1" />
    </g>
    <path
       style="fill:#945454;fill-opacity:1;stroke:none;stroke-width:5.36635;stroke-linecap:round;stroke-linejoin:round;stroke-miterlimit:4;stroke-dasharray:none;stroke-dashoffset:0;stroke-opacity:1"
       d="m -88.010522,151.47684 v 4.75366 l 4.116794,2.37683 v -4.75366 l -4.116794,-2.37683"
       id="path6587"
       inkscape:connector-curvature="0" />
    <path
       style="fill:#de765c;fill-opacity:1;stroke:none;stroke-width:5.36635;stroke-linecap:round;stroke-linejoin:round;stroke-miterlimit:4;stroke-dasharray:none;stroke-dashoffset:0;stroke-opacity:1"
       d="m -83.893728,158.60733 4.116795,-2.37683 v -4.75366 l -4.116795,2.37683 z"
       id="path6589"
       inkscape:connector-curvature="0" />
    <path
       style="fill:#f4a66c;fill-opacity:1;stroke:none;stroke-width:5.36635;stroke-linecap:round;stroke-linejoin:round;stroke-miterlimit:4;stroke-dasharray:none;stroke-dashoffset:0;stroke-opacity:1"
       d="m -88.010522,151.47684 4.116794,-2.37682 4.116795,2.37682 -4.116795,2.37683 -4.116794,-2.37683"
       id="path6591"
       inkscape:connector-curvature="0" />
    <g
       aria-label="BOXIE"
       id="text2517"
       style="font-size:76.0489px;font-family:'IBM 3270 Semi-Narrow';-inkscape-font-specification:'IBM 3270 Semi-Narrow';fill:#37946e;stroke-width:3.56478;stroke-linecap:round;stroke-linejoin:round">
      <path
         d="m -7.2192051,54.750501 h 8.5174764 q 2.5096136,0 3.5742981,-0.988636 1.1407335,-1.064685 1.1407335,-3.4222 v -4.410836 q 0,-2.357516 -1.1407335,-3.346152 Q 3.731836,41.594041 1.1461735,41.594041 h -8.3653786 q -0.8365379,0 -0.8365379,0.836538 v 11.483384 q 0,0.836538 0.8365379,0.836538 z m 0,-20.989496 h 7.75698743 q 2.43356467,0 3.57429817,-0.988636 1.1407334,-1.064684 1.1407334,-3.4222 v -2.965907 q 0,-2.357516 -1.1407334,-3.346151 Q 3.0473959,21.973426 0.61383122,21.973426 H -7.2192051 q -0.8365379,0 -0.8365379,0.836538 v 10.114503 q 0,0.836538 0.8365379,0.836538 z M -17.713953,61.214657 V 15.50927 q 0,-1.597027 1.597027,-1.597027 H 2.1348092 q 6.0078628,0 9.2779658,3.194054 3.270102,3.194053 3.270102,9.125867 v 3.118005 q 0,6.464156 -6.0078627,8.365379 3.0419557,0.456293 4.8671297,2.509613 1.825173,1.977272 1.825173,5.703668 v 4.562933 q 0,5.931814 -3.270102,9.125868 -3.2701029,3.194054 -9.2019169,3.194054 H -16.116926 q -1.597027,0 -1.597027,-1.597027 z"
         style="font-weight:bold;font-family:Rajdhani;-inkscape-font-specification:'Rajdhani Bold'"
         id="path47084" />
      <path
         d="m 37.80162,54.446305 h 5.399472 q 2.433564,0 3.4222,-0.988636 1.064685,-1.064684 1.064685,-3.498249 V 26.764507 q 0,-2.433565 -1.064685,-3.422201 -0.988636,-1.064684 -3.4222,-1.064684 H 37.80162 q -2.433565,0 -3.4222,1.064684 -0.988636,0.988636 -0.988636,3.422201 V 49.95942 q 0,2.433565 0.988636,3.498249 0.988635,0.988636 3.4222,0.988636 z m 6.996499,8.365379 h -8.517477 q -6.007863,0 -9.277965,-3.194054 -3.270103,-3.194054 -3.270103,-9.201917 v -24.1075 q 0,-6.007863 3.270103,-9.201916 3.270102,-3.194054 9.277965,-3.194054 h 8.517477 q 6.007862,0 9.277965,3.194054 3.270103,3.194053 3.270103,9.201916 v 24.1075 q 0,6.007863 -3.270103,9.201917 -3.270103,3.194054 -9.277965,3.194054 z"
         style="font-weight:bold;font-family:Rajdhani;-inkscape-font-specification:'Rajdhani Bold'"
         id="path47086" />
      <path
         d="m 72.023484,62.811684 h -7.528841 q -0.760489,0 -1.064684,-0.456294 -0.304196,-0.532342 0,-1.216782 L 75.217538,37.791597 63.810203,15.585319 q -0.304196,-0.608391 0,-1.140734 0.304196,-0.532342 1.064685,-0.532342 h 7.300694 q 1.901222,0 2.509613,1.597027 l 7.224645,16.350513 h 0.304196 L 89.362632,15.50927 q 0.760489,-1.597027 2.433565,-1.597027 h 7.452792 q 0.760491,0 1.064681,0.608391 0.38025,0.532342 0.076,1.140734 l -11.55943,22.130229 11.78758,23.270962 q 0.38024,0.760489 0.0761,1.292831 -0.3042,0.456294 -1.140735,0.456294 h -7.60489 q -1.597027,0 -2.205418,-1.520978 L 82.214036,44.864144 H 81.90984 l -7.604889,16.426562 q -0.68444,1.520978 -2.281467,1.520978 z"
         style="font-weight:bold;font-family:Rajdhani;-inkscape-font-specification:'Rajdhani Bold'"
         id="path47088" />
      <path
         d="m 117.5767,15.50927 v 45.705387 q 0,1.597027 -1.59703,1.597027 h -6.46415 q -1.59703,0 -1.59703,-1.597027 V 15.50927 q 0,-1.597027 1.59703,-1.597027 h 6.46415 q 1.59703,0 1.59703,1.597027 z"
         style="font-weight:bold;font-family:Rajdhani;-inkscape-font-specification:'Rajdhani Bold'"
         id="path47090" />
      <path
         d="M 154.30819,62.811684 H 129.4402 q -1.59702,0 -1.59702,-1.597027 V 15.50927 q 0,-1.597027 1.59702,-1.597027 h 24.86799 q 1.52098,0 1.52098,1.597027 v 5.171325 q 0,1.597027 -1.52098,1.597027 h -15.89422 q -0.91258,0 -0.91258,0.836538 v 9.886356 q 0,0.836538 0.91258,0.836538 h 13.00436 q 1.59703,0 1.59703,1.597027 v 5.171325 q 0,1.597027 -1.59703,1.597027 h -13.00436 q -0.91258,0 -0.91258,0.836537 v 10.570797 q 0,0.836538 0.91258,0.836538 h 15.89422 q 1.52098,0 1.52098,1.597027 v 5.171325 q 0,1.597027 -1.52098,1.597027 z"
         style="font-weight:bold;font-family:Rajdhani;-inkscape-font-specification:'Rajdhani Bold'"
         id="path47092" />
    </g>
    <g
       aria-label="icon
theme
for amiga
and friends"
       id="text15571"
       style="font-weight:bold;font-size:33.2508px;line-height:0.6;font-family:Rajdhani;-inkscape-font-specification:'Rajdhani Bold';fill:#639bff;stroke-width:1.55864;stroke-linecap:round;stroke-linejoin:round">
      <path
         d="m -15.060641,78.535876 v -3.291829 q 0,-0.299257 0.266006,-0.299257 h 0.465512 q 0.266006,0 0.266006,0.299257 v 3.291829 q 0,0.299257 -0.266006,0.299257 h -0.465512 q -0.266006,0 -0.266006,-0.299257 z m 0,19.418468 V 81.59495 q 0,-0.299257 0.266006,-0.299257 h 0.465512 q 0.266006,0 0.266006,0.299257 v 16.359394 q 0,0.299257 -0.266006,0.299257 h -0.465512 q -0.266006,0 -0.266006,-0.299257 z"
         style="font-weight:300;-inkscape-font-specification:'Rajdhani Light';fill:#639bff"
         id="path51589" />
      <path
         d="m 0.56719748,97.588585 v 0.39901 q 0,0.266006 -0.29925721,0.266006 H -4.4536735 q -2.0282989,0 -3.2585785,-1.23028 -1.1970288,-1.230279 -1.1970288,-3.291829 v -7.913691 q 0,-2.061549 1.1970288,-3.291829 1.2302796,-1.230279 3.2585785,-1.230279 h 4.72161377 q 0.29925721,0 0.29925721,0.266006 v 0.39901 q 0,0.266006 -0.29925721,0.266006 H -4.4536735 q -1.66254,0 -2.5603117,0.964273 -0.8977716,0.964273 -0.8977716,2.660064 v 7.847189 q 0,1.695791 0.8977716,2.660064 0.8977717,0.964274 2.5603117,0.964274 h 4.72161377 q 0.29925721,0 0.29925721,0.266006 z"
         style="font-weight:300;-inkscape-font-specification:'Rajdhani Light';fill:#639bff"
         id="path51591" />
      <path
         d="M 11.340437,98.253601 H 8.5141185 q -2.0282988,0 -3.2585785,-1.23028 -1.1970288,-1.230279 -1.1970288,-3.291829 v -7.913691 q 0,-2.061549 1.1970288,-3.291829 1.2302797,-1.230279 3.2585785,-1.230279 h 2.8263185 q 2.028299,0 3.225327,1.230279 1.23028,1.23028 1.23028,3.291829 v 7.913691 q 0,2.06155 -1.23028,3.291829 -1.197028,1.23028 -3.225327,1.23028 z M 8.5141185,97.322579 h 2.8263185 q 1.66254,0 2.560311,-0.964274 0.897772,-0.964273 0.897772,-2.660064 v -7.847189 q 0,-1.695791 -0.897772,-2.660064 -0.897771,-0.964273 -2.560311,-0.964273 H 8.5141185 q -1.66254,0 -2.5603116,0.964273 -0.8977717,0.964273 -0.8977717,2.660064 v 7.847189 q 0,1.695791 0.8977717,2.660064 0.8977716,0.964274 2.5603116,0.964274 z"
         style="font-weight:300;-inkscape-font-specification:'Rajdhani Light';fill:#639bff"
         id="path51593" />
      <path
         d="m 21.515121,98.253601 h -0.465512 q -0.266006,0 -0.266006,-0.299257 V 81.59495 q 0,-0.299257 0.266006,-0.299257 h 0.465512 q 0.266006,0 0.266006,0.299257 v 1.429784 h 0.133003 q 0.931023,-1.729041 3.524585,-1.729041 h 2.460559 q 2.028299,0 3.225328,1.230279 1.23028,1.23028 1.23028,3.291829 v 12.136543 q 0,0.299257 -0.266007,0.299257 h -0.465511 q -0.266006,0 -0.266006,-0.299257 V 85.851052 q 0,-1.695791 -0.897772,-2.660064 -0.897771,-0.964273 -2.560312,-0.964273 h -2.394057 q -1.66254,0 -2.693315,0.897772 -1.030775,0.897771 -1.030775,2.560311 v 12.269546 q 0,0.299257 -0.266006,0.299257 z"
         style="font-weight:300;-inkscape-font-specification:'Rajdhani Light';fill:#639bff"
         id="path51595" />
      <path
         d="m -14.395625,102.1772 h -2.194553 q -0.299257,0 -0.299257,-0.26601 v -0.39901 q 0,-0.26601 0.299257,-0.26601 h 2.194553 q 0.299257,0 0.299257,-0.266 v -2.593565 q 0,-0.299257 0.266007,-0.299257 h 0.465511 q 0.266006,0 0.266006,0.299257 v 2.593565 q 0,0.266 0.299257,0.266 h 4.2893538 q 0.2992572,0 0.2992572,0.26601 v 0.39901 q 0,0.26601 -0.2992572,0.26601 h -4.2893538 q -0.299257,0 -0.299257,0.266 v 11.30528 q 0,1.66254 0.964274,2.59356 0.997524,0.93102 2.6933144,0.93102 h 1.2635304 q 0.2992573,0 0.2992573,0.26601 v 0.39901 q 0,0.266 -0.2992573,0.266 h -1.2635304 q -2.0615494,0 -3.3583314,-1.19703 -1.296781,-1.19703 -1.296781,-3.22532 V 102.4432 q 0,-0.266 -0.299257,-0.266 z"
         style="font-weight:300;-inkscape-font-specification:'Rajdhani Light';fill:#639bff"
         id="path51597" />
      <path
         d="m -2.9906414,118.20408 h -0.4655112 q -0.2660064,0 -0.2660064,-0.29925 V 95.128027 q 0,-0.299258 0.2660064,-0.299258 h 0.4655112 q 0.2660064,0 0.2660064,0.299258 v 7.847193 h 0.1330032 q 0.9310224,-1.72905 3.52458491,-1.72905 H 3.3935124 q 2.0282989,0 3.2253277,1.23028 1.2302796,1.23028 1.2302796,3.29183 v 12.13655 q 0,0.29925 -0.2660064,0.29925 H 7.1176021 q -0.2660064,0 -0.2660064,-0.29925 v -12.1033 q 0,-1.69579 -0.8977716,-2.66006 Q 5.0560524,102.1772 3.3935124,102.1772 H 0.99945471 q -1.66254005,0 -2.69331491,0.89777 -1.0307748,0.89777 -1.0307748,2.56031 v 12.26955 q 0,0.29925 -0.2660064,0.29925 z"
         style="font-weight:300;-inkscape-font-specification:'Rajdhani Light';fill:#639bff"
         id="path51599" />
      <path
         d="m 23.942452,118.20408 h -6.816414 q -2.028299,0 -3.258579,-1.23028 -1.197028,-1.23028 -1.197028,-3.29183 v -7.91369 q 0,-2.06155 1.197028,-3.29183 1.23028,-1.23028 3.258579,-1.23028 h 2.92607 q 2.028299,0 3.225328,1.23028 1.23028,1.23028 1.23028,3.29183 v 4.22285 q 0,0.33251 -0.299257,0.33251 H 13.967212 q -0.299257,0 -0.299257,0.26601 v 3.05907 q 0,1.69579 0.897771,2.66007 0.897772,0.96427 2.560312,0.96427 h 6.816414 q 0.299257,0 0.299257,0.26601 v 0.39901 q 0,0.266 -0.299257,0.266 z m -9.97524,-8.81146 h 9.243723 q 0.299257,0 0.299257,-0.26601 v -3.32508 q 0,-1.69579 -0.897772,-2.66006 -0.897772,-0.96427 -2.560312,-0.96427 h -2.92607 q -1.66254,0 -2.560312,0.96427 -0.897771,0.96427 -0.897771,2.66006 v 3.32508 q 0,0.26601 0.299257,0.26601 z"
         style="font-weight:300;-inkscape-font-specification:'Rajdhani Light';fill:#639bff"
         id="path51601" />
      <path
         d="m 30.060573,118.20408 h -0.465511 q -0.266007,0 -0.266007,-0.29925 v -16.3594 q 0,-0.29926 0.266007,-0.29926 h 0.465511 q 0.266006,0 0.266006,0.29926 v 1.42979 h 0.133003 q 0.931023,-1.72905 3.524585,-1.72905 h 1.463036 q 2.92607,0 4.023347,2.36081 0.465511,-1.16378 1.69579,-1.76229 1.263531,-0.59852 2.527061,-0.59852 h 1.330032 q 2.028299,0 3.225328,1.23028 1.23028,1.23028 1.23028,3.29183 v 12.13655 q 0,0.29925 -0.266007,0.29925 h -0.465511 q -0.266006,0 -0.266006,-0.29925 v -12.1033 q 0,-1.69579 -0.897772,-2.66006 -0.897772,-0.96427 -2.560312,-0.96427 h -1.330032 q -1.695791,0 -2.759816,0.99752 -1.030775,0.96427 -1.030775,2.62681 v 12.1033 q 0,0.29925 -0.266006,0.29925 h -0.465512 q -0.266006,0 -0.266006,-0.29925 v -12.1033 q 0,-1.69579 -0.897772,-2.66006 -0.897771,-0.96427 -2.560311,-0.96427 h -1.396534 q -1.66254,0 -2.693315,0.89777 -1.030775,0.89777 -1.030775,2.56031 v 12.26955 q 0,0.29925 -0.266006,0.29925 z"
         style="font-weight:300;-inkscape-font-specification:'Rajdhani Light';fill:#639bff"
         id="path51603" />
      <path
         d="m 65.572421,118.20408 h -6.816414 q -2.028299,0 -3.258579,-1.23028 -1.197029,-1.23028 -1.197029,-3.29183 v -7.91369 q 0,-2.06155 1.197029,-3.29183 1.23028,-1.23028 3.258579,-1.23028 h 2.92607 q 2.028299,0 3.225328,1.23028 1.230279,1.23028 1.230279,3.29183 v 4.22285 q 0,0.33251 -0.299257,0.33251 H 55.59718 q -0.299257,0 -0.299257,0.26601 v 3.05907 q 0,1.69579 0.897772,2.66007 0.897772,0.96427 2.560312,0.96427 h 6.816414 q 0.299257,0 0.299257,0.26601 v 0.39901 q 0,0.266 -0.299257,0.266 z m -9.975241,-8.81146 h 9.243723 q 0.299257,0 0.299257,-0.26601 v -3.32508 q 0,-1.69579 -0.897771,-2.66006 -0.897772,-0.96427 -2.560312,-0.96427 h -2.92607 q -1.66254,0 -2.560312,0.96427 -0.897772,0.96427 -0.897772,2.66006 v 3.32508 q 0,0.26601 0.299257,0.26601 z"
         style="font-weight:300;-inkscape-font-specification:'Rajdhani Light';fill:#639bff"
         id="path51605" />
      <path
         d="m -12.433828,121.19666 h 3.1255756 q 0.2992572,0 0.2992572,0.266 v 0.39901 q 0,0.26601 -0.2992572,0.26601 h -3.1255756 q -0.299257,0 -0.299257,0.266 v 15.46163 q 0,0.29925 -0.266006,0.29925 h -0.465512 q -0.266006,0 -0.266006,-0.29925 v -15.46163 q 0,-0.266 -0.299257,-0.266 h -2.261055 q -0.299257,0 -0.299257,-0.26601 v -0.39901 q 0,-0.266 0.299257,-0.266 h 2.261055 q 0.299257,0 0.299257,-0.26601 v -1.69579 q 0,-4.45561 3.9235946,-4.45561 h 0.498762 q 0.2992572,0 0.2992572,0.26601 v 0.39901 q 0,0.266 -0.2992572,0.266 h -0.498762 q -1.5960386,0 -2.2610546,0.89777 -0.665016,0.86453 -0.665016,2.66007 v 1.66254 q 0,0.26601 0.299257,0.26601 z"
         style="font-weight:300;-inkscape-font-specification:'Rajdhani Light';fill:#639bff"
         id="path51607" />
      <path
         d="m 1.3652217,138.15456 h -2.8263181 q -2.0282989,0 -3.2585785,-1.23028 -1.1970289,-1.23028 -1.1970289,-3.29182 v -7.9137 q 0,-2.06155 1.1970289,-3.29182 1.2302796,-1.23028 3.2585785,-1.23028 h 2.8263181 q 2.0282988,0 3.2253277,1.23028 1.2302796,1.23027 1.2302796,3.29182 v 7.9137 q 0,2.06154 -1.2302796,3.29182 -1.1970289,1.23028 -3.2253277,1.23028 z m -2.8263181,-0.93102 h 2.8263181 q 1.66254,0 2.5603117,-0.96427 Q 4.823305,135.295 4.823305,133.5992 v -7.84718 q 0,-1.6958 -0.8977716,-2.66007 -0.8977717,-0.96427 -2.5603117,-0.96427 h -2.8263181 q -1.6625401,0 -2.5603117,0.96427 -0.8977716,0.96427 -0.8977716,2.66007 v 7.84718 q 0,1.6958 0.8977716,2.66007 0.8977716,0.96427 2.5603117,0.96427 z"
         style="font-weight:300;-inkscape-font-specification:'Rajdhani Light';fill:#639bff"
         id="path51609" />
      <path
         d="m 11.539905,138.15456 h -0.465511 q -0.266007,0 -0.266007,-0.29925 v -16.3594 q 0,-0.29925 0.266007,-0.29925 h 0.465511 q 0.266006,0 0.266006,0.29925 v 1.49629 h 0.133003 q 0.365759,-0.66502 1.263531,-1.23028 0.931022,-0.56526 2.394058,-0.56526 h 1.330032 q 0.299257,0 0.299257,0.266 v 0.39901 q 0,0.26601 -0.299257,0.26601 h -1.363283 q -1.695791,0 -2.726566,1.06402 -1.030775,1.06403 -1.030775,2.89282 v 11.77079 q 0,0.29925 -0.266006,0.29925 z"
         style="font-weight:300;-inkscape-font-specification:'Rajdhani Light';fill:#639bff"
         id="path51611" />
      <path
         d="m 36.777204,138.15456 h -2.460559 q -2.028299,0 -3.258578,-1.23028 -1.197029,-1.23028 -1.197029,-3.29182 v -7.9137 q 0,-2.06155 1.197029,-3.29182 1.230279,-1.23028 3.258578,-1.23028 h 6.849665 q 0.266006,0 0.266006,0.29925 v 16.3594 q 0,0.29925 -0.266006,0.29925 h -0.465511 q -0.266007,0 -0.266007,-0.29925 v -1.42979 h -0.133003 q -0.931022,1.72904 -3.524585,1.72904 z m 3.657588,-4.3891 v -11.37178 q 0,-0.266 -0.299257,-0.266 h -5.81889 q -1.66254,0 -2.560312,0.96427 -0.897771,0.96427 -0.897771,2.66007 v 7.84718 q 0,1.6958 0.897771,2.66007 0.897772,0.96427 2.560312,0.96427 h 2.394058 q 1.66254,0 2.693315,-0.89777 1.030774,-0.89777 1.030774,-2.56031 z"
         style="font-weight:300;-inkscape-font-specification:'Rajdhani Light';fill:#639bff"
         id="path51613" />
      <path
         d="m 47.483936,138.15456 h -0.465512 q -0.266006,0 -0.266006,-0.29925 v -16.3594 q 0,-0.29925 0.266006,-0.29925 h 0.465512 q 0.266006,0 0.266006,0.29925 v 1.42979 h 0.133003 q 0.931023,-1.72904 3.524585,-1.72904 h 1.463035 q 2.926071,0 4.023347,2.3608 0.465511,-1.16378 1.695791,-1.76229 1.263531,-0.59851 2.527061,-0.59851 h 1.330032 q 2.028299,0 3.225328,1.23028 1.230279,1.23027 1.230279,3.29182 v 12.13655 q 0,0.29925 -0.266006,0.29925 h -0.465511 q -0.266007,0 -0.266007,-0.29925 v -12.10329 q 0,-1.6958 -0.897771,-2.66007 -0.897772,-0.96427 -2.560312,-0.96427 h -1.330032 q -1.695791,0 -2.759817,0.99752 -1.030774,0.96428 -1.030774,2.62682 v 12.10329 q 0,0.29925 -0.266007,0.29925 h -0.465511 q -0.266006,0 -0.266006,-0.29925 v -12.10329 q 0,-1.6958 -0.897772,-2.66007 -0.897772,-0.96427 -2.560312,-0.96427 h -1.396533 q -1.66254,0 -2.693315,0.89777 -1.030775,0.89777 -1.030775,2.56031 v 12.26955 q 0,0.29925 -0.266006,0.29925 z"
         style="font-weight:300;-inkscape-font-specification:'Rajdhani Light';fill:#639bff"
         id="path51615" />
      <path
         d="m 72.222516,118.43684 v -3.29183 q 0,-0.29926 0.266007,-0.29926 h 0.465511 q 0.266006,0 0.266006,0.29926 v 3.29183 q 0,0.29926 -0.266006,0.29926 h -0.465511 q -0.266007,0 -0.266007,-0.29926 z m 0,19.41847 v -16.3594 q 0,-0.29925 0.266007,-0.29925 h 0.465511 q 0.266006,0 0.266006,0.29925 v 16.3594 q 0,0.29925 -0.266006,0.29925 h -0.465511 q -0.266007,0 -0.266007,-0.29925 z"
         style="font-weight:300;-inkscape-font-specification:'Rajdhani Light';fill:#639bff"
         id="path51617" />
      <path
         d="m 85.456299,137.15704 h -2.46056 q -2.028299,0 -3.258578,-1.23028 -1.197029,-1.23028 -1.197029,-3.29183 v -6.91617 q 0,-2.06155 1.197029,-3.29182 1.230279,-1.23028 3.258578,-1.23028 h 6.849665 q 0.266007,0 0.266007,0.29925 v 16.5589 q 0,2.06155 -1.23028,3.29183 -1.197029,1.23028 -3.225328,1.23028 H 79.70391 q -0.299257,0 -0.299257,-0.26601 v -0.39901 q 0,-0.266 0.299257,-0.266 h 5.951893 q 1.66254,0 2.560312,-0.96428 0.897772,-0.96427 0.897772,-2.66006 V 135.428 h -0.133004 q -0.931022,1.72904 -3.524584,1.72904 z m 3.657588,-4.38911 v -10.37425 q 0,-0.266 -0.299258,-0.266 h -5.81889 q -1.66254,0 -2.560311,0.96427 -0.897772,0.96427 -0.897772,2.66007 v 6.84966 q 0,1.69579 0.897772,2.66006 0.897771,0.96428 2.560311,0.96428 h 2.394058 q 1.66254,0 2.693315,-0.89777 1.030775,-0.89778 1.030775,-2.56032 z"
         style="font-weight:300;-inkscape-font-specification:'Rajdhani Light';fill:#639bff"
         id="path51619" />
      <path
         d="m 102.01514,138.15456 h -2.460557 q -2.028299,0 -3.258579,-1.23028 -1.197028,-1.23028 -1.197028,-3.29182 v -7.9137 q 0,-2.06155 1.197028,-3.29182 1.23028,-1.23028 3.258579,-1.23028 h 6.849667 q 0.266,0 0.266,0.29925 v 16.3594 q 0,0.29925 -0.266,0.29925 h -0.46551 q -0.26601,0 -0.26601,-0.29925 v -1.42979 h -0.133 q -0.93103,1.72904 -3.52459,1.72904 z m 3.65759,-4.3891 v -11.37178 q 0,-0.266 -0.29926,-0.266 h -5.818887 q -1.66254,0 -2.560312,0.96427 -0.897771,0.96427 -0.897771,2.66007 v 7.84718 q 0,1.6958 0.897771,2.66007 0.897772,0.96427 2.560312,0.96427 h 2.394057 q 1.66254,0 2.69332,-0.89777 1.03077,-0.89777 1.03077,-2.56031 z"
         style="font-weight:300;-inkscape-font-specification:'Rajdhani Light';fill:#639bff"
         id="path51621" />
      <path
         d="m -8.6432364,158.10505 h -2.4605596 q -2.028299,0 -3.258578,-1.23028 -1.197029,-1.23028 -1.197029,-3.29183 v -7.91369 q 0,-2.06155 1.197029,-3.29183 1.230279,-1.23028 3.258578,-1.23028 h 6.8496654 q 0.2660064,0 0.2660064,0.29925 v 16.3594 q 0,0.29926 -0.2660064,0.29926 h -0.4655112 q -0.2660065,0 -0.2660065,-0.29926 V 156.376 h -0.1330032 q -0.9310224,1.72905 -3.5245849,1.72905 z m 3.6575881,-4.38911 v -11.37177 q 0,-0.26601 -0.2992572,-0.26601 h -5.8188905 q -1.66254,0 -2.560311,0.96427 -0.897772,0.96428 -0.897772,2.66007 v 7.84719 q 0,1.69579 0.897772,2.66006 0.897771,0.96427 2.560311,0.96427 h 2.394058 q 1.6625401,0 2.6933149,-0.89777 1.0307748,-0.89777 1.0307748,-2.56031 z"
         style="font-weight:300;-inkscape-font-specification:'Rajdhani Light';fill:#639bff"
         id="path51623" />
      <path
         d="M 2.0634949,158.10505 H 1.5979836 q -0.2660064,0 -0.2660064,-0.29926 v -16.3594 q 0,-0.29925 0.2660064,-0.29925 h 0.4655113 q 0.2660064,0 0.2660064,0.29925 v 1.42979 h 0.1330032 q 0.9310224,-1.72904 3.5245849,-1.72904 h 2.4605593 q 2.0282993,0 3.2253273,1.23028 1.23028,1.23028 1.23028,3.29183 v 12.13654 q 0,0.29926 -0.266006,0.29926 h -0.465512 q -0.266006,0 -0.266006,-0.29926 V 145.7025 q 0,-1.69579 -0.897772,-2.66007 -0.897771,-0.96427 -2.5603113,-0.96427 H 6.053591 q -1.6625401,0 -2.6933149,0.89777 -1.0307748,0.89777 -1.0307748,2.56031 v 12.26955 q 0,0.29926 -0.2660064,0.29926 z"
         style="font-weight:300;-inkscape-font-specification:'Rajdhani Light';fill:#639bff"
         id="path51625" />
      <path
         d="m 24.640734,158.10505 h -2.46056 q -2.028299,0 -3.258578,-1.23028 -1.197029,-1.23028 -1.197029,-3.29183 v -7.91369 q 0,-2.06155 1.197029,-3.29183 1.230279,-1.23028 3.258578,-1.23028 h 2.46056 q 2.593562,0 3.524584,1.72904 h 0.133004 v -7.84719 q 0,-0.29926 0.266006,-0.29926 h 0.465511 q 0.266007,0 0.266007,0.29926 v 22.7768 q 0,0.29926 -0.266007,0.29926 h -0.465511 q -0.266006,0 -0.266006,-0.29926 V 156.376 h -0.133004 q -0.931022,1.72905 -3.524584,1.72905 z m 3.657588,-4.38911 v -8.1797 q 0,-1.66254 -1.030775,-2.56031 -1.030775,-0.89777 -2.693315,-0.89777 h -2.394058 q -1.66254,0 -2.560311,0.96427 -0.897772,0.96428 -0.897772,2.66007 v 7.84719 q 0,1.69579 0.897772,2.66006 0.897771,0.96427 2.560311,0.96427 h 2.394058 q 1.66254,0 2.693315,-0.89777 1.030775,-0.89777 1.030775,-2.56031 z"
         style="font-weight:300;-inkscape-font-specification:'Rajdhani Light';fill:#639bff"
         id="path51627" />
      <path
         d="m 46.719199,141.14714 h 3.125575 q 0.299257,0 0.299257,0.266 v 0.39901 q 0,0.26601 -0.299257,0.26601 h -3.125575 q -0.299257,0 -0.299257,0.26601 v 15.46162 q 0,0.29926 -0.266007,0.29926 h -0.465511 q -0.266006,0 -0.266006,-0.29926 v -15.46162 q 0,-0.26601 -0.299258,-0.26601 h -2.261054 q -0.299257,0 -0.299257,-0.26601 v -0.39901 q 0,-0.266 0.299257,-0.266 h 2.261054 q 0.299258,0 0.299258,-0.26601 v -1.69579 q 0,-4.45561 3.923594,-4.45561 h 0.498762 q 0.299257,0 0.299257,0.26601 v 0.39901 q 0,0.266 -0.299257,0.266 h -0.498762 q -1.596038,0 -2.261054,0.89778 -0.665016,0.86452 -0.665016,2.66006 v 1.66254 q 0,0.26601 0.299257,0.26601 z"
         style="font-weight:300;-inkscape-font-specification:'Rajdhani Light';fill:#639bff"
         id="path51629" />
      <path
         d="m 54.300346,158.10505 h -0.465512 q -0.266006,0 -0.266006,-0.29926 v -16.3594 q 0,-0.29925 0.266006,-0.29925 h 0.465512 q 0.266006,0 0.266006,0.29925 v 1.49629 h 0.133003 q 0.365759,-0.66502 1.263531,-1.23028 0.931022,-0.56526 2.394057,-0.56526 h 1.330032 q 0.299258,0 0.299258,0.266 v 0.39901 q 0,0.26601 -0.299258,0.26601 h -1.363282 q -1.695791,0 -2.726566,1.06402 -1.030775,1.06403 -1.030775,2.89282 v 11.77079 q 0,0.29926 -0.266006,0.29926 z"
         style="font-weight:300;-inkscape-font-specification:'Rajdhani Light';fill:#639bff"
         id="path51631" />
      <path
         d="m 63.810056,138.38732 v -3.29183 q 0,-0.29926 0.266006,-0.29926 h 0.465512 q 0.266006,0 0.266006,0.29926 v 3.29183 q 0,0.29926 -0.266006,0.29926 h -0.465512 q -0.266006,0 -0.266006,-0.29926 z m 0,19.41847 v -16.3594 q 0,-0.29925 0.266006,-0.29925 h 0.465512 q 0.266006,0 0.266006,0.29925 v 16.3594 q 0,0.29926 -0.266006,0.29926 h -0.465512 q -0.266006,0 -0.266006,-0.29926 z"
         style="font-weight:300;-inkscape-font-specification:'Rajdhani Light';fill:#639bff"
         id="path51633" />
      <path
         d="m 81.233439,158.10505 h -6.816414 q -2.028299,0 -3.258579,-1.23028 -1.197028,-1.23028 -1.197028,-3.29183 v -7.91369 q 0,-2.06155 1.197028,-3.29183 1.23028,-1.23028 3.258579,-1.23028 h 2.92607 q 2.028299,0 3.225328,1.23028 1.23028,1.23028 1.23028,3.29183 v 4.22285 q 0,0.33251 -0.299257,0.33251 H 71.258199 q -0.299257,0 -0.299257,0.266 v 3.05908 q 0,1.69579 0.897771,2.66006 0.897772,0.96427 2.560312,0.96427 h 6.816414 q 0.299257,0 0.299257,0.26601 v 0.39901 q 0,0.26601 -0.299257,0.26601 z m -9.97524,-8.81147 h 9.243723 q 0.299257,0 0.299257,-0.266 v -3.32508 q 0,-1.69579 -0.897772,-2.66007 -0.897771,-0.96427 -2.560312,-0.96427 h -2.92607 q -1.66254,0 -2.560312,0.96427 -0.897771,0.96428 -0.897771,2.66007 v 3.32508 q 0,0.266 0.299257,0.266 z"
         style="font-weight:300;-inkscape-font-specification:'Rajdhani Light';fill:#639bff"
         id="path51635" />
      <path
         d="m 87.351562,158.10505 h -0.465511 q -0.266007,0 -0.266007,-0.29926 v -16.3594 q 0,-0.29925 0.266007,-0.29925 h 0.465511 q 0.266006,0 0.266006,0.29925 v 1.42979 h 0.133003 q 0.931023,-1.72904 3.524585,-1.72904 h 2.46056 q 2.028298,0 3.225327,1.23028 1.23028,1.23028 1.23028,3.29183 v 12.13654 q 0,0.29926 -0.266007,0.29926 h -0.465511 q -0.266006,0 -0.266006,-0.29926 V 145.7025 q 0,-1.69579 -0.897772,-2.66007 -0.897771,-0.96427 -2.560311,-0.96427 h -2.394058 q -1.66254,0 -2.693315,0.89777 -1.030775,0.89777 -1.030775,2.56031 v 12.26955 q 0,0.29926 -0.266006,0.29926 z"
         style="font-weight:300;-inkscape-font-specification:'Rajdhani Light';fill:#639bff"
         id="path51637" />
      <path
         d="m 109.9288,158.10505 h -2.46056 q -2.0283,0 -3.25858,-1.23028 -1.19703,-1.23028 -1.19703,-3.29183 v -7.91369 q 0,-2.06155 1.19703,-3.29183 1.23028,-1.23028 3.25858,-1.23028 h 2.46056 q 2.59356,0 3.52459,1.72904 h 0.133 v -7.84719 q 0,-0.29926 0.266,-0.29926 h 0.46552 q 0.266,0 0.266,0.29926 v 22.7768 q 0,0.29926 -0.266,0.29926 h -0.46552 q -0.266,0 -0.266,-0.29926 V 156.376 h -0.133 q -0.93103,1.72905 -3.52459,1.72905 z m 3.65759,-4.38911 v -8.1797 q 0,-1.66254 -1.03078,-2.56031 -1.03077,-0.89777 -2.69331,-0.89777 h -2.39406 q -1.66254,0 -2.56031,0.96427 -0.89777,0.96428 -0.89777,2.66007 v 7.84719 q 0,1.69579 0.89777,2.66006 0.89777,0.96427 2.56031,0.96427 h 2.39406 q 1.66254,0 2.69331,-0.89777 1.03078,-0.89777 1.03078,-2.56031 z"
         style="font-weight:300;-inkscape-font-specification:'Rajdhani Light';fill:#639bff"
         id="path51639" />
      <path
         d="M 125.15764,158.10505 H 119.505 q -0.29926,0 -0.29926,-0.26601 v -0.39901 q 0,-0.26601 0.29926,-0.26601 h 5.65264 q 3.35833,0 3.35833,-2.66006 v -0.99753 q 0,-1.23027 -0.43226,-1.99504 -0.43226,-0.76477 -1.56279,-1.16378 l -4.38911,-1.52954 q -1.72904,-0.59851 -2.4273,-1.46303 -0.66502,-0.89777 -0.66502,-2.49381 0,-3.72409 4.0566,-3.72409 h 5.35338 q 0.29925,0 0.29925,0.266 v 0.39901 q 0,0.26601 -0.29925,0.26601 h -5.35338 q -1.52954,0 -2.29431,0.69827 -0.73152,0.69826 -0.73152,1.59603 v 0.89778 q 0,1.06402 0.53202,1.66254 0.56526,0.56526 1.72904,0.96427 l 4.35585,1.56279 q 1.7623,0.49876 2.29431,1.62929 0.53201,1.13052 0.53201,3.15882 0,2.0283 -1.06402,2.95932 -1.06403,0.89778 -3.29183,0.89778 z"
         style="font-weight:300;-inkscape-font-specification:'Rajdhani Light';fill:#639bff"
         id="path51641" />
    </g>
    <ellipse
       style="fill:#639bff;fill-opacity:0.528359;stroke-width:1.87499;stroke-linecap:round;stroke-linejoin:round;filter:url(#filter46598)"
       id="path46596"
       cx="-305.89963"
       cy="24.830797"
       rx="12.815913"
       ry="78.006027"
       clip-path="url(#clipPath46882)"
       transform="matrix(-1,0,0,1,-338.40095,58.529412)" />
  </g>
</svg>
