<?xml version="1.0" encoding="UTF-8" standalone="no"?>
<!-- Created with Inkscape (http://www.inkscape.org/) -->

<svg
   width="136.53333333333333"
   height="136.53333333333333"
   id="svg4152"
   version="1.1"
   inkscape:version="1.1.2 (0a00cf5339, 2022-02-04)"
   viewBox="0.0 0.0 136.53333333333333 136.53333333333333"
   sodipodi:docname="1.svg"
   xmlns:inkscape="http://www.inkscape.org/namespaces/inkscape"
   xmlns:sodipodi="http://sodipodi.sourceforge.net/DTD/sodipodi-0.dtd"
   xmlns="http://www.w3.org/2000/svg"
   xmlns:svg="http://www.w3.org/2000/svg"
   xmlns:rdf="http://www.w3.org/1999/02/22-rdf-syntax-ns#"
   xmlns:cc="http://creativecommons.org/ns#"
   xmlns:dc="http://purl.org/dc/elements/1.1/">
  <defs
     id="defs4154" />
  <sodipodi:namedview
     id="base"
     pagecolor="#1e222d"
     bordercolor="#666666"
     borderopacity="1.0"
     inkscape:pageopacity="0"
     inkscape:pageshadow="2"
     inkscape:zoom="0.125"
     inkscape:cx="1736"
     inkscape:cy="-256"
     inkscape:current-layer="layer1"
     showgrid="true"
     inkscape:document-units="px"
     inkscape:grid-bbox="true"
     inkscape:window-width="1920"
     inkscape:window-height="1027"
     inkscape:window-x="0"
     inkscape:window-y="0"
     inkscape:window-maximized="1"
     inkscape:snap-bbox="true"
     inkscape:bbox-paths="true"
     inkscape:bbox-nodes="true"
     inkscape:snap-bbox-edge-midpoints="true"
     inkscape:snap-bbox-midpoints="true"
     inkscape:object-paths="true"
     inkscape:snap-intersection-paths="true"
     inkscape:object-nodes="true"
     inkscape:snap-smooth-nodes="true"
     inkscape:snap-midpoints="true"
     inkscape:snap-object-midpoints="true"
     inkscape:snap-center="true"
     inkscape:snap-global="true"
     inkscape:snap-page="false"
     inkscape:snap-grids="true"
     showguides="false"
     inkscape:snap-nodes="true"
     inkscape:snap-others="true"
     inkscape:snap-to-guides="false"
     inkscape:pagecheckerboard="0">
    <inkscape:grid
       type="axonomgrid"
       id="grid4835"
       units="mm"
       empspacing="5"
       spacingy="1.8897637" />
  </sodipodi:namedview>
  <metadata
     id="metadata4157">
    <rdf:RDF>
      <cc:Work
         rdf:about="">
        <dc:format>image/svg+xml</dc:format>
        <dc:type
           rdf:resource="http://purl.org/dc/dcmitype/StillImage" />
      </cc:Work>
    </rdf:RDF>
  </metadata>
  <g
     id="layer1"
     inkscape:label="Layer 1"
     inkscape:groupmode="layer"
     transform="matrix(1.06667 0 0 1.06667 0 68.2667)">
    <g
       id="g3682"
       transform="translate(30.685843,-17.716479)">
      <g
         id="g1825">
        <path
           style="fill:#d9a066;fill-opacity:0.666371;stroke-width:0.937497;stroke-linecap:round;stroke-linejoin:round"
           d="m 23.014382,-32.995992 v 62.007677 l 46.028763,26.57472 V -6.4212735 Z"
           id="path1044" />
        <path
           style="fill:#663931;fill-opacity:1;stroke-width:0.937497;stroke-linecap:round;stroke-linejoin:round"
           d="m 23.014382,-32.995992 7.67146,-4.42912 46.028764,26.574719 -7.671461,4.4291195 z"
           id="path1046" />
        <path
           style="fill:#45283c;fill-opacity:1;stroke-width:0.937497;stroke-linecap:round;stroke-linejoin:round"
           d="m 76.714606,-10.850393 v 62.007677 l -7.671461,4.429121 V -6.4212735 l 7.671461,-4.4291195"
           id="path1081" />
        <path
           style="fill:#663931;fill-opacity:0.999697;stroke-width:0.937497;stroke-linecap:round;stroke-linejoin:round"
           d="M 26.082966,-27.681048 65.974561,-4.6496252 V 50.271462 L 26.082966,27.240038 v -54.921086"
           id="path1168" />
        <path
           style="fill:#8f563b;fill-opacity:1;stroke-width:0.937497;stroke-linecap:round;stroke-linejoin:round"
           d="m 30.685842,24.582566 35.288719,20.373951 v 5.314945 L 26.082966,27.240038 Z"
           id="path1183"
           sodipodi:nodetypes="ccccc" />
        <path
           style="fill:#45283c;fill-opacity:0.811526;stroke-width:0.937497;stroke-linecap:round;stroke-linejoin:round"
           d="m 26.082966,27.240038 4.602876,-2.657472 v -49.606143 l -4.602876,-2.657471 z"
           id="path1181" />
      </g>
      <path
         style="fill:#3f3f74;fill-opacity:0.9986;stroke-width:0.937497;stroke-linecap:round;stroke-linejoin:round"
         d="M 30.685842,-25.023577 V 24.582566 L 65.974561,44.956519 V -4.6496252 Z"
         id="path1895" />
      <path
         style="fill:#6abe30;fill-opacity:1;stroke-width:0.937497;stroke-linecap:round;stroke-linejoin:round"
         d="m 30.685842,15.724326 7.671461,-4.42912 7.67146,13.28736 7.671461,-4.42912 7.671461,13.287356 4.602876,2.657476 v 8.858241 L 30.685842,24.582566 v -8.858241"
         id="path1860" />
      <path
         style="fill:#639bff;fill-opacity:0.994926;stroke-width:0.937497;stroke-linecap:round;stroke-linejoin:round"
         d="m 39.891595,-7.3070976 -1.534292,0.8858241 v 1.7716483 1.7716482 l 1.534292,2.65747136 h 3.068584 l 1.534293,2.65747234 1.534291,0.8858241 4.602877,0.8858232 v 0 l 1.534292,2.6574723 4.602877,-2.6574723 4.602876,0.8858241 v 0 L 62.905977,2.4369667 61.371685,-0.22050564 H 58.3031 L 56.768809,0.66531846 55.234516,-1.9921529 50.63164,-2.877977 49.097348,-1.9921539 c 0,0 -3.068585,-1.7716472 -3.068585,-1.7716472 0,0 0,-1.7716482 0,-1.7716482 0,0 -3.068584,-1.7716483 -3.068584,-1.7716483 0,0 -1.534292,0.8858241 -1.534292,0.8858241 z"
         id="path2163" />
    </g>
    <g
       id="g3670"
       transform="translate(-38.357307,146.16095)">
      <g
         id="g2323"
         transform="translate(296.11838,-139.07436)">
        <path
           style="fill:#d9a066;fill-opacity:0.92000741;stroke-width:0.937497;stroke-linecap:round;stroke-linejoin:round"
           d="m -219.40377,-48.940824 v 62.007677 l 46.02876,26.57472 v -62.007678 z"
           id="path2311" />
        <path
           style="fill:#663931;fill-opacity:1;stroke-width:0.937497;stroke-linecap:round;stroke-linejoin:round"
           d="m -219.40377,-48.940824 7.67146,-4.42912 46.02876,26.574719 -7.67146,4.42912 z"
           id="path2313" />
        <path
           style="fill:#45283c;fill-opacity:1;stroke-width:0.937497;stroke-linecap:round;stroke-linejoin:round"
           d="m -165.70355,-26.795225 v 62.007677 l -7.67146,4.429121 v -62.007678 l 7.67146,-4.42912"
           id="path2315" />
        <path
           style="fill:#663931;fill-opacity:0.999697;stroke-width:0.937497;stroke-linecap:round;stroke-linejoin:round"
           d="m -216.33519,-43.62588 39.8916,23.031423 V 34.32663 l -39.8916,-23.031424 V -43.62588"
           id="path2317" />
        <path
           style="fill:#8f563b;fill-opacity:1;stroke-width:0.937497;stroke-linecap:round;stroke-linejoin:round"
           d="m -211.73231,8.6377342 35.28872,20.3739508 v 5.314945 l -39.8916,-23.031424 z"
           id="path2319"
           sodipodi:nodetypes="ccccc" />
        <path
           style="fill:#45283c;fill-opacity:0.811526;stroke-width:0.937497;stroke-linecap:round;stroke-linejoin:round"
           d="m -216.33519,11.295206 4.60288,-2.6574718 V -40.968409 l -4.60288,-2.657471 z"
           id="path2321" />
      </g>
      <path
         style="fill:#76428a;fill-opacity:0.994926;stroke-width:0.937497;stroke-linecap:round;stroke-linejoin:round"
         d="m 84.386066,-180.04277 35.288714,20.37395 v 49.60614 l -35.288714,-20.37395 z"
         id="path2490" />
      <path
         style="fill:#5fcde4;fill-opacity:0.994926;stroke-width:0.937497;stroke-linecap:round;stroke-linejoin:round"
         d="m 90.523235,-137.52322 13.808625,-18.6023 3.06859,26.57472 z"
         id="path2624" />
      <path
         style="fill:#5b6ee1;fill-opacity:0.994926;stroke-width:0.937497;stroke-linecap:round;stroke-linejoin:round"
         d="m 112.00333,-141.06652 -3.06859,12.40154 7.67146,4.42912 -4.60287,-16.83066"
         id="path2659" />
      <path
         style="fill:#5b6ee1;fill-opacity:0.994926;stroke-width:0.937497;stroke-linecap:round;stroke-linejoin:round"
         d="m 91.290381,-154.79678 -4.602877,-0.88583 1.534293,16.83066 3.068584,-15.94483"
         id="path2694" />
    </g>
    <g
       id="g3657"
       transform="translate(-184.11506,150.59007)">
      <g
         id="g2788"
         transform="translate(426.53321,-134.64524)">
        <path
           style="fill:#d9a066;fill-opacity:0.9709813;stroke-width:0.937497;stroke-linecap:round;stroke-linejoin:round"
           d="m -219.40377,-48.940824 v 62.007677 l 46.02876,26.57472 v -62.007678 z"
           id="path2776" />
        <path
           style="fill:#663931;fill-opacity:0.99789929;stroke-width:0.937497;stroke-linecap:round;stroke-linejoin:round"
           d="m -219.40377,-48.940824 7.67146,-4.42912 46.02876,26.574719 -7.67146,4.42912 z"
           id="path2778" />
        <path
           style="fill:#45283c;fill-opacity:1;stroke-width:0.937497;stroke-linecap:round;stroke-linejoin:round"
           d="m -165.70355,-26.795225 v 62.007677 l -7.67146,4.429121 v -62.007678 l 7.67146,-4.42912"
           id="path2780" />
        <path
           style="fill:#663931;fill-opacity:0.999697;stroke-width:0.937497;stroke-linecap:round;stroke-linejoin:round"
           d="m -216.33519,-43.62588 39.8916,23.031423 V 34.32663 l -39.8916,-23.031424 V -43.62588"
           id="path2782" />
        <path
           style="fill:#8f563b;fill-opacity:1;stroke-width:0.937497;stroke-linecap:round;stroke-linejoin:round"
           d="m -211.73231,8.6377342 35.28872,20.3739508 v 5.314945 l -39.8916,-23.031424 z"
           id="path2784"
           sodipodi:nodetypes="ccccc" />
        <path
           style="fill:#45283c;fill-opacity:0.811526;stroke-width:0.937497;stroke-linecap:round;stroke-linejoin:round"
           d="m -216.33519,11.295206 4.60288,-2.6574718 V -40.968409 l -4.60288,-2.657471 z"
           id="path2786" />
      </g>
      <path
         style="fill:#37946e;fill-opacity:0.994926;stroke-width:0.937497;stroke-linecap:round;stroke-linejoin:round"
         d="m 214.8009,-175.61365 35.28871,20.37395 v 49.60614 l -35.28871,-20.37395 z"
         id="path2790" />
      <path
         style="fill:#ffffff;fill-opacity:0.994926;stroke-width:0.937497;stroke-linecap:round;stroke-linejoin:round"
         d="m 220.93806,-141.95234 4.60289,-4.42912 15.34291,8.85824 3.06859,10.62989 -4.60288,-0.88583 -15.34292,-8.85824 z"
         id="path3269"
         sodipodi:nodetypes="ccccccc" />
      <path
         style="fill:#d95763;fill-opacity:0.992157;stroke-width:1.87499;stroke-linecap:round;stroke-linejoin:round"
         d="m 227.84241,-137.96612 3.06857,5.31494 3.06858,1.77165 3.06858,-1.77165 v -3.5433 l -3.17504,-5.3764 -2.96212,-1.71019 -3.06857,1.77165"
         id="path8782"
         sodipodi:nodetypes="cccccccc" />
      <path
         style="fill:#000000;fill-opacity:0.992157;stroke-width:0.937497;stroke-linecap:round;stroke-linejoin:round"
         d="m 230.14382,-137.52321 1.53429,2.65747 1.53429,0.88582 1.53429,-0.88582 v -1.77165 l -1.58751,-2.6882 -1.48107,-0.85509 -1.53429,0.88582"
         id="path8844"
         sodipodi:nodetypes="cccccccc" />
      <path
         style="fill:#ac3232;fill-opacity:0.994926;stroke-width:0.937497;stroke-linecap:round;stroke-linejoin:round"
         d="m 217.86948,-154.35388 6.13717,-3.5433 9.20576,10.6299 4.60287,0.88582 6.13717,8.85824 -3.06859,-12.40154 -4.60287,-0.88582 -9.20576,-10.62988 h -6.13716 z"
         id="path3530"
         sodipodi:nodetypes="cccccccccc" />
    </g>
  </g>
</svg>
