<?xml version="1.0" encoding="UTF-8" standalone="no"?>
<!-- Created with Inkscape (http://www.inkscape.org/) -->

<svg
   width="136.53333333333333"
   height="136.53333333333333"
   id="svg4152"
   version="1.1"
   inkscape:version="1.1.2 (0a00cf5339, 2022-02-04)"
   viewBox="0.0 0.0 136.53333333333333 136.53333333333333"
   sodipodi:docname="elements.svg"
   xmlns:inkscape="http://www.inkscape.org/namespaces/inkscape"
   xmlns:sodipodi="http://sodipodi.sourceforge.net/DTD/sodipodi-0.dtd"
   xmlns="http://www.w3.org/2000/svg"
   xmlns:svg="http://www.w3.org/2000/svg"
   xmlns:rdf="http://www.w3.org/1999/02/22-rdf-syntax-ns#"
   xmlns:cc="http://creativecommons.org/ns#"
   xmlns:dc="http://purl.org/dc/elements/1.1/">
  <defs
     id="defs4154" />
  <sodipodi:namedview
     id="base"
     pagecolor="#1e222d"
     bordercolor="#666666"
     borderopacity="1.0"
     inkscape:pageopacity="0"
     inkscape:pageshadow="2"
     inkscape:zoom="4"
     inkscape:cx="-10"
     inkscape:cy="16"
     inkscape:current-layer="layer1"
     showgrid="true"
     inkscape:document-units="px"
     inkscape:grid-bbox="true"
     inkscape:window-width="1920"
     inkscape:window-height="1027"
     inkscape:window-x="0"
     inkscape:window-y="0"
     inkscape:window-maximized="1"
     inkscape:snap-bbox="true"
     inkscape:bbox-paths="true"
     inkscape:bbox-nodes="true"
     inkscape:snap-bbox-edge-midpoints="true"
     inkscape:snap-bbox-midpoints="true"
     inkscape:object-paths="true"
     inkscape:snap-intersection-paths="true"
     inkscape:object-nodes="true"
     inkscape:snap-smooth-nodes="true"
     inkscape:snap-midpoints="true"
     inkscape:snap-object-midpoints="true"
     inkscape:snap-center="true"
     inkscape:snap-global="true"
     inkscape:snap-page="false"
     inkscape:snap-grids="true"
     showguides="false"
     inkscape:snap-nodes="true"
     inkscape:snap-others="true"
     inkscape:snap-to-guides="false"
     inkscape:pagecheckerboard="0">
    <inkscape:grid
       type="axonomgrid"
       id="grid4835"
       units="mm"
       empspacing="5"
       spacingy="1.8897637" />
  </sodipodi:namedview>
  <metadata
     id="metadata4157">
    <rdf:RDF>
      <cc:Work
         rdf:about="">
        <dc:format>image/svg+xml</dc:format>
        <dc:type
           rdf:resource="http://purl.org/dc/dcmitype/StillImage" />
      </cc:Work>
    </rdf:RDF>
  </metadata>
  <g
     id="layer1"
     inkscape:label="Layer 1"
     inkscape:groupmode="layer"
     transform="matrix(1.06667 0 0 1.06667 0 68.2667)">
    <path
       style="fill:#2f6182;fill-opacity:0.992157;stroke-width:1.87499;stroke-linecap:round;stroke-linejoin:round"
       d="m 75.180343,11.295206 3.068569,5.314944 3.068578,1.771648 3.068576,-1.771648 V 13.066854 L 81.21103,7.6904458 78.248912,5.9802618 75.180343,7.7519098"
       id="path8782"
       sodipodi:nodetypes="cccccccc" />
    <path
       style="fill:#fbf236;fill-opacity:0.992157;stroke-width:0.937497;stroke-linecap:round;stroke-linejoin:round"
       d="m 77.481755,11.738118 1.53429,2.657472 1.53429,0.885824 1.53429,-0.885824 v -1.771648 l -1.58752,-2.6882042 -1.48106,-0.855092 -1.53429,0.885824"
       id="path8844"
       sodipodi:nodetypes="cccccccc" />
    <path
       style="fill:#fbf236;fill-opacity:0.992157;stroke-width:0.937497;stroke-linecap:round;stroke-linejoin:round"
       d="m 59.07025,-0.66341759 1.53429,2.65747199 1.53429,0.885824 1.53429,-0.885824 V 0.22240641 l -1.58752,-2.68820421 -1.48106,-0.855092 -1.53429,0.885824"
       id="path938"
       sodipodi:nodetypes="cccccccc" />
    <path
       style="fill:#4b692f;fill-opacity:1;stroke-width:0.937497;stroke-linecap:round;stroke-linejoin:round"
       d="m 33.754425,31.669157 1.5343,-0.885824 h 6.13716 l 1.53429,0.885824 v 3.543295 l -1.53429,0.885825 h -6.13716 l -1.5343,-0.885825 z"
       id="path9056" />
    <path
       style="fill:#4b692f;fill-opacity:1;stroke-width:0.937497;stroke-linecap:round;stroke-linejoin:round"
       d="m 36.823015,38.755749 -4.60288,2.657471 v 1.771648 l 4.60288,2.657472 h 3.06858 l 4.60288,-2.657472 V 41.41322 l -4.60288,-2.657471 h -3.06858"
       id="path9058" />
    <path
       style="fill:#4b692f;fill-opacity:1;stroke-width:0.937497;stroke-linecap:round;stroke-linejoin:round"
       d="m 42.960175,36.984101 1.5343,-0.885824 h 3.06858 l 1.5343,0.885824 v 1.771648 l -1.5343,0.885823 h -3.06858 l -1.5343,-0.885823 z"
       id="path9257" />
    <path
       style="fill:#4b692f;fill-opacity:1;stroke-width:0.937497;stroke-linecap:round;stroke-linejoin:round"
       d="m 44.494475,27.240037 1.53429,0.885824 1.53429,-0.885824 1.5343,0.885824 -1.5343,0.885824 1.5343,0.885824 -1.5343,0.885824 -1.53429,-0.885824 -1.53429,0.885824 -1.5343,-0.885824 1.5343,-0.885824 -1.5343,-0.885824 z"
       id="path9259" />
    <path
       style="fill:#639bff;fill-opacity:1;stroke-width:0.937497;stroke-linecap:round;stroke-linejoin:round"
       d="m 61.371685,24.582565 -4.60288,2.657472 3.06858,5.314944 4.60288,-2.657473 -3.06858,-5.314943"
       id="path10660" />
    <path
       style="opacity:1;fill:#5fcde4;fill-opacity:1;stroke-width:0.937497;stroke-linecap:round;stroke-linejoin:round"
       d="m 59.83739,41.413221 v 1.771647 l 1.5343,0.885824 1.53428,-0.885824 v -1.771647 l -1.53428,-0.885825 z"
       id="path10971" />
    <path
       style="fill:#639bff;fill-opacity:1;stroke-width:0.937497;stroke-linecap:round;stroke-linejoin:round"
       d="m 19.945792,-27.681049 1.5343,0.885824 6.13716,-3.543296 v -1.771648 z"
       id="path11118" />
    <path
       style="opacity:0.259482;fill:#639bff;fill-opacity:1;stroke-width:0.937497;stroke-linecap:round;stroke-linejoin:round"
       d="m 19.945792,-29.452696 v 1.771647 l 1.5343,0.885824 1.53428,-0.885824 v -1.771647 l -1.53428,-0.885825 z"
       id="path10971-3" />
    <path
       style="fill:#5b6ee1;fill-opacity:1;stroke-width:0.937497;stroke-linecap:round;stroke-linejoin:round"
       d="m 19.945792,-29.452696 6.13717,-3.543297 1.53429,0.885824 -7.67146,4.42912 v -1.771647"
       id="path11285" />
    <path
       style="fill:#639bff;fill-opacity:1;stroke-width:0.937497;stroke-linecap:round;stroke-linejoin:round"
       d="m 30.685842,-37.425112 -4.60288,2.657472 3.06858,5.314944 4.60288,-2.657473 -3.06858,-5.314943"
       id="path10660-6" />
    <path
       style="fill:#306082;fill-opacity:1;stroke-width:0.937497;stroke-linecap:round;stroke-linejoin:round"
       d="m 26.082962,-34.76764 -1.5343,0.885823 3.06859,5.314945 1.53429,-0.885824 z"
       id="path10662" />
    <path
       style="fill:#fbf236;fill-opacity:1;stroke-width:0.937497;stroke-linecap:round;stroke-linejoin:round"
       d="m 69.810289,-28.12396 1.53429,-0.885824 3.06859,1.771648 v 3.543295 l -1.53429,0.885824 -3.06859,-1.771648 v -3.543295"
       id="path12057" />
    <path
       style="fill:#5b6ee1;fill-opacity:1;stroke-width:0.937497;stroke-linecap:round;stroke-linejoin:round"
       d="m 104.33186,-19.708634 4.60287,-2.657472 1.53429,0.885824 -6.13716,3.543296 v -1.771648"
       id="path12280" />
    <path
       style="fill:#fbf236;fill-opacity:1;stroke-width:0.937497;stroke-linecap:round;stroke-linejoin:round"
       d="m 99.728988,29.011685 3.068592,7.086592 7.67145,-4.42912 -3.06858,-7.086592 z"
       id="path13133" />
    <path
       style="fill:#5b6ee1;fill-opacity:1;stroke-width:0.937497;stroke-linecap:round;stroke-linejoin:round"
       d="M 24.54867,2.436966 19.9458,5.094438 18.41151,4.208614 24.54867,0.665318 v 1.771648"
       id="path13383" />
    <path
       style="fill:#37946e;fill-opacity:1;stroke-width:0.937497;stroke-linecap:round;stroke-linejoin:round"
       d="m 98.194687,1.551143 1.5343,-0.885825 -4.60287,-7.972415 -1.5343,0.885824 4.60287,7.972416"
       id="path12495" />
    <path
       style="fill:#000000;stroke-width:0.937497;stroke-linecap:round;stroke-linejoin:round"
       d="m -107.40045,-72.858069 46.028765,26.574716 46.028763,-26.574716 -46.028763,-26.574719 -46.028765,26.574719"
       id="path1096"
       sodipodi:nodetypes="ccccc" />
    <path
       style="fill:#5b6ee1;stroke-width:0.937497;stroke-linecap:round;stroke-linejoin:round"
       d="m -107.40045,-72.858071 46.028765,-62.007679 v 88.582397 l -46.028765,-26.574718"
       id="path1377" />
    <path
       style="fill:#323c39;stroke-width:0.937497;stroke-linecap:round;stroke-linejoin:round"
       d="m -61.371685,-134.86575 46.028763,62.007679 -46.028763,26.574718 z"
       id="path1412" />
  </g>
</svg>
