<?xml version="1.0" encoding="UTF-8" standalone="no"?>
<!-- Created with Inkscape (http://www.inkscape.org/) -->

<svg
   width="136.53333333333333"
   height="136.53333333333333"
   id="svg4152"
   version="1.1"
   inkscape:version="1.1.2 (0a00cf5339, 2022-02-04)"
   viewBox="0.0 0.0 136.53333333333333 136.53333333333333"
   sodipodi:docname="0.svg"
   xmlns:inkscape="http://www.inkscape.org/namespaces/inkscape"
   xmlns:sodipodi="http://sodipodi.sourceforge.net/DTD/sodipodi-0.dtd"
   xmlns:xlink="http://www.w3.org/1999/xlink"
   xmlns="http://www.w3.org/2000/svg"
   xmlns:svg="http://www.w3.org/2000/svg"
   xmlns:rdf="http://www.w3.org/1999/02/22-rdf-syntax-ns#"
   xmlns:cc="http://creativecommons.org/ns#"
   xmlns:dc="http://purl.org/dc/elements/1.1/">
  <defs
     id="defs4154">
    <linearGradient
       inkscape:collect="always"
       id="linearGradient17593">
      <stop
         style="stop-color:#000000;stop-opacity:1"
         offset="0"
         id="stop17589" />
      <stop
         style="stop-color:#000000;stop-opacity:0"
         offset="1"
         id="stop17591" />
    </linearGradient>
    <linearGradient
       inkscape:collect="always"
       xlink:href="#linearGradient17593"
       id="linearGradient19809"
       gradientUnits="userSpaceOnUse"
       x1="125.19397"
       y1="-1.0370035"
       x2="96.6604"
       y2="5.9802618"
       gradientTransform="translate(-4.4838322e-6,8.8582464)" />
  </defs>
  <sodipodi:namedview
     id="base"
     pagecolor="#242936"
     bordercolor="#666666"
     borderopacity="1.0"
     inkscape:pageopacity="0"
     inkscape:pageshadow="2"
     inkscape:zoom="1.4142136"
     inkscape:cx="198.69701"
     inkscape:cy="-72.831998"
     inkscape:current-layer="layer1"
     showgrid="true"
     inkscape:document-units="px"
     inkscape:grid-bbox="true"
     inkscape:window-width="1920"
     inkscape:window-height="1027"
     inkscape:window-x="0"
     inkscape:window-y="0"
     inkscape:window-maximized="1"
     inkscape:snap-bbox="true"
     inkscape:bbox-paths="true"
     inkscape:bbox-nodes="true"
     inkscape:snap-bbox-edge-midpoints="true"
     inkscape:snap-bbox-midpoints="true"
     inkscape:object-paths="true"
     inkscape:snap-intersection-paths="true"
     inkscape:object-nodes="true"
     inkscape:snap-smooth-nodes="true"
     inkscape:snap-midpoints="true"
     inkscape:snap-object-midpoints="true"
     inkscape:snap-center="true"
     inkscape:snap-global="true"
     inkscape:snap-page="false"
     inkscape:snap-grids="true"
     showguides="true"
     inkscape:snap-nodes="true"
     inkscape:snap-others="true"
     inkscape:snap-to-guides="false"
     inkscape:pagecheckerboard="0">
    <inkscape:grid
       type="axonomgrid"
       id="grid4835"
       units="mm"
       empspacing="5"
       spacingy="1.8897637" />
  </sodipodi:namedview>
  <metadata
     id="metadata4157">
    <rdf:RDF>
      <cc:Work
         rdf:about="">
        <dc:format>image/svg+xml</dc:format>
        <dc:type
           rdf:resource="http://purl.org/dc/dcmitype/StillImage" />
      </cc:Work>
    </rdf:RDF>
  </metadata>
  <g
     id="layer1"
     inkscape:label="Layer 1"
     inkscape:groupmode="layer"
     transform="matrix(1.06667 0 0 1.06667 0 68.2667)">
    <path
       style="fill:#3f3f74;fill-opacity:1;stroke:none;stroke-width:1.87499;stroke-linecap:round;stroke-linejoin:round"
       d="M 76.714606,33.440814 115.07191,11.295215 v 17.716479 l -38.357304,22.14559 z"
       id="path19737" />
    <path
       style="fill:#3f3f74;fill-opacity:1;stroke:none;stroke-width:1.87499;stroke-linecap:round;stroke-linejoin:round"
       d="M 15.342926,-1.9921454 53.700226,-24.137746 115.07191,11.295215 76.714606,33.440814 15.342926,-1.9921454"
       id="path19739"
       sodipodi:nodetypes="ccccc" />
    <path
       style="fill:#323c39;fill-opacity:1;stroke:none;stroke-width:1.87499;stroke-linecap:round;stroke-linejoin:round"
       d="M 53.700226,-22.366096 V -6.4212653 L 99.72899,20.153454 115.07191,11.295215 53.700226,-24.137746"
       id="path19741" />
    <path
       style="fill:#5b6ee1;fill-opacity:1;stroke:none;stroke-width:1.87499;stroke-linecap:round;stroke-linejoin:round"
       d="M 81.317486,0.66532515 105.86615,14.838505 78.248896,30.783344 l -23.01438,-13.28736 7.67146,-0.885829 4.60288,-0.88582 4.60287,-2.65747 6.13717,-5.3149499 z"
       id="path19743" />
    <path
       style="fill:#222034;fill-opacity:1;stroke:none;stroke-width:1.87499;stroke-linecap:round;stroke-linejoin:round"
       d="m 15.342926,-1.9921454 38.3573,-22.1456006 V -6.4212653 L 30.685846,6.8660952 Z"
       id="path19745" />
    <path
       style="fill:#df7126;fill-opacity:1;stroke:none;stroke-width:1.87499;stroke-linecap:round;stroke-linejoin:round"
       d="m 76.714606,1.5511452 -3.06858,-6.8798905 -7.67146,-4.42912 -12.27434,-1.7716497 -12.27434,1.7716497 -7.67146,4.42912 -3.06858,7.0865905 1.53429,7.7657202 9.20575,5.3149396 12.27434,1.77165 7.67146,-0.88582 9.20575,-3.5433 4.60288,-4.4291199 1.53429,-6.2007699"
       id="path19747"
       sodipodi:nodetypes="cccccccccccccc" />
    <path
       style="fill:#5b6ee1;fill-opacity:1;stroke:none;stroke-width:1.87499;stroke-linecap:round;stroke-linejoin:round"
       d="m 76.714606,-3.7637953 -3.06858,-7.0865897 -7.67146,-4.429121 -12.27434,-1.77165 -12.27434,1.77165 -7.67146,4.429121 -3.06858,7.0865897 1.53429,7.9724205 9.20575,5.3149402 12.27434,1.7716496 7.67146,-0.88582 9.20575,-3.5432998 4.60288,-4.42912 1.53429,-6.2007705"
       id="path19749" />
    <path
       style="fill:#639bff;fill-opacity:0.411507;stroke:none;stroke-width:1.87499;stroke-linecap:round;stroke-linejoin:round"
       d="M 32.220136,4.2086252 53.700226,-2.8779643 41.425886,9.5235654 Z"
       id="path19751" />
    <path
       style="fill:#d77bba;fill-opacity:0.492408;stroke:none;stroke-width:1.87499;stroke-linecap:round;stroke-linejoin:round"
       d="m 53.700226,-2.8779643 12.27434,-12.4015417 7.67146,4.429121 -19.9458,7.9724207"
       id="path19753" />
    <path
       style="fill:#000000;fill-opacity:1;stroke:none;stroke-width:0.362901;stroke-linecap:round;stroke-linejoin:round"
       d="m 58.154626,-3.0494153 -0.59392,-1.3716 -1.4848,-0.85725 -2.37568,-0.3429 -2.37568,0.3429 -1.4848,0.85725 -0.59392,1.3716 0.29696,1.5430399 1.78176,1.02870055 2.37568,0.3429 1.4848,-0.17145 1.78176,-0.68580002 0.89088,-0.85725053 0.29696,-1.2001399"
       id="path19755" />
    <path
       style="fill:#5fcde4;fill-opacity:1;stroke:none;stroke-width:1.87499;stroke-linecap:round;stroke-linejoin:round"
       d="m 90.523236,-1.1063249 21.480084,12.4015399 -16.8772,9.744059 -1.534294,-6.200769 3.068584,-1.77164 V 9.5235654 L 93.591826,5.9802652 Z"
       id="path19759" />
    <path
       style="fill:#4b692f;fill-opacity:1;stroke:none;stroke-width:1.87499;stroke-linecap:round;stroke-linejoin:round"
       d="m 55.234516,19.267624 21.48009,12.40154 13.80863,-7.97242 -13.80863,-2.65747 -7.67146,-4.429119 -16.87721,0.885829 z"
       id="path19761" />
    <path
       style="fill:#fbf236;fill-opacity:1;stroke:none;stroke-width:1.87499;stroke-linecap:round;stroke-linejoin:round"
       d="m 30.685846,-3.7637953 v 5.3149405 l 1.53429,7.9724202 V 4.2086252 l -1.53429,-7.9724205"
       id="path19763" />
    <path
       style="fill:#eec39a;fill-opacity:1;stroke:none;stroke-width:1.87499;stroke-linecap:round;stroke-linejoin:round"
       d="m 32.220136,9.5235654 9.20575,5.3149396 V 9.5235654 l -9.20575,-5.3149402 v 5.3149402"
       id="path19765"
       sodipodi:nodetypes="ccccc" />
    <path
       style="fill:#cbdbfc;fill-opacity:1;stroke:none;stroke-width:1.87499;stroke-linecap:round;stroke-linejoin:round"
       d="m 41.425886,9.5235654 v 5.3149396 l 12.27434,1.77165 v -5.31494 z"
       id="path19767" />
    <path
       style="fill:#fbf236;fill-opacity:1;stroke:none;stroke-width:1.87499;stroke-linecap:round;stroke-linejoin:round"
       d="m 53.700226,11.295215 v 5.31494 l 7.67146,-0.88582 v -5.31495 z"
       id="path19769"
       sodipodi:nodetypes="ccccc" />
    <path
       style="fill:#eec39a;fill-opacity:1;stroke:none;stroke-width:1.87499;stroke-linecap:round;stroke-linejoin:round"
       d="m 61.371686,10.409385 9.20575,-3.5432898 v 5.3149398 l -9.20575,3.5433 z"
       id="path19771" />
    <path
       style="fill:#d9a066;fill-opacity:1;stroke:none;stroke-width:1.87499;stroke-linecap:round;stroke-linejoin:round"
       d="m 70.577436,6.8660952 v 5.3149398 l 4.60288,-4.4291199 V 2.4369752 Z"
       id="path19773" />
    <path
       style="fill:#306082;fill-opacity:1;stroke:none;stroke-width:1.87499;stroke-linecap:round;stroke-linejoin:round"
       d="m 56.768806,1.9940652 7.67146,22.1455988 6.13717,1.77164 1.53429,-4.42912 z"
       id="path19775" />
    <path
       style="fill:#222034;fill-opacity:1;stroke:none;stroke-width:1.87499;stroke-linecap:round;stroke-linejoin:round"
       d="M 15.342926,-1.9921454 V 15.724335 l 61.37168,35.432949 v -17.71647 z"
       id="path19777" />
    <path
       style="fill:#5fcde4;fill-opacity:1;stroke:none;stroke-width:1.87499;stroke-linecap:round;stroke-linejoin:round"
       d="m 56.768806,0.66532515 7.67146,22.14559885 6.13717,1.77165 1.53429,-4.42912 z"
       id="path19779" />
    <path
       style="fill:#8f563b;fill-opacity:1;stroke:none;stroke-width:1.87499;stroke-linecap:round;stroke-linejoin:round"
       d="m 76.714606,-3.7637953 v 5.3149405 l -1.53429,6.2007699 V 2.4369752 l 1.53429,-6.2007705"
       id="path19781" />
    <path
       style="fill:#3f3f74;fill-opacity:1;stroke:none;stroke-width:1.87499;stroke-linecap:round;stroke-linejoin:round"
       d="m 90.523236,-1.1063249 v 8.85824 l 3.06858,7.0865899 V 5.9802652 l -3.06858,-7.0865901"
       id="path19783" />
    <path
       style="fill:#306082;fill-opacity:1;stroke:none;stroke-width:1.87499;stroke-linecap:round;stroke-linejoin:round"
       d="m 93.591816,5.9802652 3.068594,3.5433002 v 3.5432996 l -3.068594,1.77164 V 5.9802652"
       id="path19785" />
    <path
       style="fill:#3f3f74;fill-opacity:1;stroke:none;stroke-width:1.87499;stroke-linecap:round;stroke-linejoin:round"
       d="m 93.591816,14.838505 v 7.086599 l 1.534304,-0.88583 -1.534304,-6.200769"
       id="path19787" />
    <path
       style="fill:#9badb7;fill-opacity:1;stroke:none;stroke-width:1.87499;stroke-linecap:round;stroke-linejoin:round"
       d="m 18.411506,-1.9921454 58.3031,33.6613094 35.288724,-20.373949 -58.303104,-33.661311 -1.53429,-0.88583 1.53429,-0.88582 61.371684,35.432961 -38.357304,22.145599 -61.37168,-35.4329594 1.53429,-0.8858189 z"
       id="path19789" />
    <path
       style="fill:#9badb7;fill-opacity:1;stroke:none;stroke-width:1.87499;stroke-linecap:round;stroke-linejoin:round"
       d="m 16.877216,-2.8779643 35.28872,-20.3739617 1.53429,0.88583 -35.28872,20.3739506 -1.53429,-0.8858189"
       id="path19791" />
    <path
       style="fill:#323c39;fill-opacity:1;stroke:none;stroke-width:1.87499;stroke-linecap:round;stroke-linejoin:round"
       d="m 75.180316,29.011694 1.53429,0.88582 1.53429,-0.88582 -1.53429,-0.88583 z"
       id="path19793" />
    <path
       style="fill:#9badb7;fill-opacity:1;stroke:none;stroke-width:1.87499;stroke-linecap:round;stroke-linejoin:round"
       d="m 21.480086,-1.9921454 1.5343,0.8858205 1.53429,-0.8858205 -1.53429,-0.8858189 z"
       id="path19795" />
    <path
       style="fill:#9badb7;fill-opacity:1;stroke:none;stroke-width:1.87499;stroke-linecap:round;stroke-linejoin:round"
       d="m 53.700226,-20.594446 1.53429,0.88582 -1.53429,0.88582 -1.53429,-0.88582 1.53429,-0.88582"
       id="path19797" />
    <path
       style="fill:#9badb7;fill-opacity:1;stroke:none;stroke-width:1.87499;stroke-linecap:round;stroke-linejoin:round"
       d="m 105.86615,9.5235654 -1.53429,0.8858196 1.53429,0.88583 1.5343,-0.88583 -1.5343,-0.8858196"
       id="path19799" />
    <path
       style="fill:#323c39;fill-opacity:1;stroke:none;stroke-width:1.87499;stroke-linecap:round;stroke-linejoin:round"
       d="m 104.33186,12.181035 1.53429,0.88583 1.5343,-0.88583 -1.5343,-0.88582 -1.53429,0.88582"
       id="path19801" />
    <path
       style="fill:#9badb7;fill-opacity:1;stroke:none;stroke-width:1.87499;stroke-linecap:round;stroke-linejoin:round"
       d="m 75.180316,27.240044 1.53429,0.88582 1.53429,-0.88582 -1.53429,-0.88582 z"
       id="path19803" />
    <path
       style="opacity:0.604684;fill:#222034;fill-opacity:1;stroke:none;stroke-width:1.87499;stroke-linecap:round;stroke-linejoin:round;stroke-opacity:0.553056"
       d="m 67.508856,21.039274 1.53429,-0.88582 1.53429,0.88582 v 1.77165 l -1.53429,0.88582 -1.53429,-0.88582 v -1.77165"
       id="path19805" />
    <path
       style="fill:url(#linearGradient19809);fill-opacity:1;stroke:none;stroke-width:1.87499;stroke-linecap:round;stroke-linejoin:round"
       d="m 90.523236,-1.1063249 21.480084,12.4015399 -16.8772,9.744059 -1.534294,-6.200769 3.068584,-1.77164 V 9.5235654 L 93.591826,5.9802652 Z"
       id="path19807" />
    <path
       style="fill:#d95763;stroke-width:0.937497;stroke-linecap:round;stroke-linejoin:round"
       d="m 15.342923,-28.566868 7.671461,4.42912 7.67146,-4.42912 -7.67146,-4.429121 z"
       id="path895" />
    <path
       style="fill:#76428a;stroke-width:0.937497;stroke-linecap:round;stroke-linejoin:round"
       d="m 30.685844,-37.425109 v 8.858241 l -7.67146,-4.429121 v -8.858241 l 7.67146,4.429121"
       id="path963" />
    <path
       style="fill:#3f3f74;stroke-width:0.937497;stroke-linecap:round;stroke-linejoin:round"
       d="m 30.685844,-37.425109 7.671461,-4.429121 v 8.858241 l 7.67146,-4.42912 v 8.858241 l -7.67146,4.42912 v 8.858241 l -7.671461,4.429122 v -8.858242 l -7.67146,4.42912 v -8.858241 l 7.67146,-4.42912 v -8.858241"
       id="path998" />
    <path
       style="fill:#595652;stroke-width:0.937497;stroke-linecap:round;stroke-linejoin:round"
       d="m 15.342923,-28.566868 v 8.858241 l 7.671461,4.42912 v -8.858241 l -7.671461,-4.42912"
       id="path1033" />
    <path
       style="fill:#222034;stroke-width:0.937497;stroke-linecap:round;stroke-linejoin:round"
       d="m 30.685844,-10.850385 -7.67146,4.4291187 v -8.8582407 l 7.67146,-4.42912 v 8.858242"
       id="path1035"
       sodipodi:nodetypes="ccccc" />
    <path
       style="fill:#d95763;stroke-width:0.937497;stroke-linecap:round;stroke-linejoin:round"
       d="m 38.357305,-41.85423 -7.671461,-4.429121 -7.67146,4.429121 7.67146,4.429121 z"
       id="path1070" />
    <path
       style="fill:#d95763;stroke-width:0.937497;stroke-linecap:round;stroke-linejoin:round"
       d="m 46.028765,-37.425109 -7.67146,-4.429121 v 8.858241 z"
       id="path1105" />
  </g>
</svg>
