<?xml version="1.0" encoding="UTF-8" standalone="no"?>
<!-- Created with Inkscape (http://www.inkscape.org/) -->

<svg
   width="136.53333333333333"
   height="136.53333333333333"
   id="svg4152"
   version="1.1"
   inkscape:version="1.1.2 (0a00cf5339, 2022-02-04)"
   viewBox="0.0 0.0 136.53333333333333 136.53333333333333"
   sodipodi:docname="0.svg"
   xmlns:inkscape="http://www.inkscape.org/namespaces/inkscape"
   xmlns:sodipodi="http://sodipodi.sourceforge.net/DTD/sodipodi-0.dtd"
   xmlns="http://www.w3.org/2000/svg"
   xmlns:svg="http://www.w3.org/2000/svg"
   xmlns:rdf="http://www.w3.org/1999/02/22-rdf-syntax-ns#"
   xmlns:cc="http://creativecommons.org/ns#"
   xmlns:dc="http://purl.org/dc/elements/1.1/">
  <defs
     id="defs4154" />
  <sodipodi:namedview
     id="base"
     pagecolor="#1e222d"
     bordercolor="#666666"
     borderopacity="1.0"
     inkscape:pageopacity="0"
     inkscape:pageshadow="2"
     inkscape:zoom="16"
     inkscape:cx="39.25"
     inkscape:cy="124.75"
     inkscape:current-layer="layer1"
     showgrid="true"
     inkscape:document-units="px"
     inkscape:grid-bbox="true"
     inkscape:window-width="1920"
     inkscape:window-height="1027"
     inkscape:window-x="0"
     inkscape:window-y="0"
     inkscape:window-maximized="1"
     inkscape:snap-bbox="true"
     inkscape:bbox-paths="true"
     inkscape:bbox-nodes="true"
     inkscape:snap-bbox-edge-midpoints="true"
     inkscape:snap-bbox-midpoints="true"
     inkscape:object-paths="true"
     inkscape:snap-intersection-paths="true"
     inkscape:object-nodes="true"
     inkscape:snap-smooth-nodes="true"
     inkscape:snap-midpoints="true"
     inkscape:snap-object-midpoints="true"
     inkscape:snap-center="true"
     inkscape:snap-global="true"
     inkscape:snap-page="false"
     inkscape:snap-grids="true"
     showguides="false"
     inkscape:snap-nodes="true"
     inkscape:snap-others="true"
     inkscape:snap-to-guides="false"
     inkscape:pagecheckerboard="0">
    <inkscape:grid
       type="axonomgrid"
       id="grid4835"
       units="mm"
       empspacing="5"
       spacingy="1.8897637" />
  </sodipodi:namedview>
  <metadata
     id="metadata4157">
    <rdf:RDF>
      <cc:Work
         rdf:about="">
        <dc:format>image/svg+xml</dc:format>
        <dc:type
           rdf:resource="http://purl.org/dc/dcmitype/StillImage" />
      </cc:Work>
    </rdf:RDF>
  </metadata>
  <g
     id="layer1"
     inkscape:label="Layer 1"
     inkscape:groupmode="layer"
     transform="matrix(1.06667 0 0 1.06667 0 68.2667)">
    <path
       style="fill:#412f48;fill-opacity:1;stroke:none;stroke-width:1.9;stroke-linecap:square;stroke-linejoin:round;stroke-miterlimit:4;stroke-dasharray:none;stroke-dashoffset:0;stroke-opacity:0.521569"
       d="m 23.014235,-32.995901 46.02891,-26.57481 30.68594,17.71654 v 31.8897591 l -3.06859,1.77165 v 3.54331 l 3.06859,1.77165 V 29.011969 l -46.02891,26.5748 -30.68594,-17.71653 z"
       id="path4912"
       inkscape:connector-curvature="0"
       sodipodi:nodetypes="ccccccccccc" />
    <path
       sodipodi:nodetypes="cccccccccccc"
       inkscape:connector-curvature="0"
       id="path4914"
       d="m 99.729085,-41.854171 -46.02891,26.5748 v 70.86614 l 46.02891,-26.5748 v -24.8031509 -7.08662 l -3.06859,-1.77165 v -3.54331 l 3.06859,-1.77165 v -10.6299191 -3.54331 z"
       style="fill:#403d6b;fill-opacity:1;stroke:none;stroke-width:1.9;stroke-linecap:square;stroke-linejoin:round;stroke-miterlimit:4;stroke-dasharray:none;stroke-dashoffset:0;stroke-opacity:0.521569" />
    <path
       style="fill:#38668b;fill-opacity:1;stroke:none;stroke-width:1.9;stroke-linecap:square;stroke-linejoin:round;stroke-miterlimit:4;stroke-dasharray:none;stroke-dashoffset:0;stroke-opacity:0.521569"
       d="M 99.729085,-2.8778019 53.700175,23.697009 v 31.88976 l 46.02891,-26.5748 z"
       id="path4916"
       inkscape:connector-curvature="0"
       sodipodi:nodetypes="ccccc" />
    <path
       sodipodi:nodetypes="ccccc"
       inkscape:connector-curvature="0"
       id="path4918"
       d="m 99.729085,-41.854171 -46.02891,26.5748 v 31.88977 l 46.02891,-26.5748109 z"
       style="fill:#38668b;fill-opacity:1;stroke:none;stroke-width:1.9;stroke-linecap:square;stroke-linejoin:round;stroke-miterlimit:4;stroke-dasharray:none;stroke-dashoffset:0;stroke-opacity:0.521569" />
    <path
       sodipodi:nodetypes="ccccc"
       style="fill:#2ba0b5;fill-opacity:1;stroke:none;stroke-width:1.9;stroke-linecap:square;stroke-linejoin:round;stroke-miterlimit:4;stroke-dasharray:none;stroke-dashoffset:0;stroke-opacity:0.521569"
       d="m 23.014235,-32.995901 30.68594,17.71653 46.02891,-26.5748 -30.68594,-17.71654 z"
       id="path4920"
       inkscape:connector-curvature="0" />
    <path
       style="fill:#403d6b;fill-opacity:1;stroke:none;stroke-width:1.9;stroke-linecap:square;stroke-linejoin:round;stroke-miterlimit:4;stroke-dasharray:none;stroke-dashoffset:0;stroke-opacity:0.521569"
       d="m 69.043145,-9.9644119 15.34297,-8.8582691 V -8.1927619 L 69.043145,0.66550808 V -9.9644119"
       id="path4922"
       inkscape:connector-curvature="0"
       sodipodi:nodetypes="ccccc" />
    <path
       style="fill:#2ba0b5;fill-opacity:1;stroke:none;stroke-width:1.9;stroke-linecap:square;stroke-linejoin:round;stroke-miterlimit:4;stroke-dasharray:none;stroke-dashoffset:0;stroke-opacity:0.521569"
       d="m 69.043145,-2.8778019 12.27438,-7.08661 3.06859,1.77165 -15.34297,8.85826998 z"
       id="path4924"
       inkscape:connector-curvature="0"
       sodipodi:nodetypes="ccccc" />
    <path
       style="fill:#2ba0b5;fill-opacity:1;stroke:none;stroke-width:1.9;stroke-linecap:square;stroke-linejoin:round;stroke-miterlimit:4;stroke-dasharray:none;stroke-dashoffset:0;stroke-opacity:0.521569"
       d="m 99.729085,-2.8778019 -3.06859,-1.77165 -46.02891,26.5748009 3.06859,1.77166 z"
       id="path4926"
       inkscape:connector-curvature="0"
       sodipodi:nodetypes="ccccc" />
    <path
       sodipodi:nodetypes="ccccc"
       inkscape:connector-curvature="0"
       id="path4928"
       d="m 69.043145,25.468659 15.34297,-8.85827 v 10.62992 l -15.34297,8.85827 v -10.62992"
       style="fill:#403d6b;fill-opacity:1;stroke:none;stroke-width:1.9;stroke-linecap:square;stroke-linejoin:round;stroke-miterlimit:4;stroke-dasharray:none;stroke-dashoffset:0;stroke-opacity:0.521569" />
    <path
       sodipodi:nodetypes="ccccc"
       inkscape:connector-curvature="0"
       id="path4930"
       d="m 69.043145,32.555269 12.27438,-7.08661 3.06859,1.77165 -15.34297,8.85827 z"
       style="fill:#2ba0b5;fill-opacity:1;stroke:none;stroke-width:1.9;stroke-linecap:square;stroke-linejoin:round;stroke-miterlimit:4;stroke-dasharray:none;stroke-dashoffset:0;stroke-opacity:0.521569" />
    <path
       style="fill:#353555;fill-opacity:0.431953;stroke:none;stroke-width:1.9;stroke-linecap:square;stroke-linejoin:round;stroke-miterlimit:4;stroke-dasharray:none;stroke-dashoffset:0;stroke-opacity:0.521569"
       d="m 50.631585,-17.051021 3.06859,1.77165 v 31.88976 l -3.06859,-1.77165 z"
       id="path4934"
       inkscape:connector-curvature="0" />
    <path
       inkscape:connector-curvature="0"
       id="path4936"
       d="m 50.631585,21.925359 3.06859,1.77165 v 31.88976 l -3.06859,-1.77165 z"
       style="fill:#353555;fill-opacity:0.431953;stroke:none;stroke-width:1.9;stroke-linecap:square;stroke-linejoin:round;stroke-miterlimit:4;stroke-dasharray:none;stroke-dashoffset:0;stroke-opacity:0.521569" />
    <path
       style="fill:#38668b;fill-opacity:1;stroke:none;stroke-width:1.9;stroke-linecap:square;stroke-linejoin:round;stroke-miterlimit:4;stroke-dasharray:none;stroke-dashoffset:0;stroke-opacity:0.521569"
       d="m 23.014235,-32.995911 27.61735,15.94489 46.02891,-26.57481 -27.61735,-15.94488 z"
       id="path4938"
       inkscape:connector-curvature="0" />
    <path
       style="fill:#38365e;fill-opacity:1;stroke:none;stroke-width:1.9;stroke-linecap:square;stroke-linejoin:round;stroke-miterlimit:4;stroke-dasharray:none;stroke-dashoffset:0;stroke-opacity:0.521569"
       d="m 50.631585,14.838739 3.06859,1.77165 v 3.54331 l -3.06859,1.77165 v -7.08661"
       id="path4970"
       inkscape:connector-curvature="0" />
    <path
       style="fill:#292941;fill-opacity:1;stroke:none;stroke-width:1.9;stroke-linecap:square;stroke-linejoin:round;stroke-miterlimit:4;stroke-dasharray:none;stroke-dashoffset:0;stroke-opacity:0.521569"
       d="m 26.082835,39.641889 v 3.54331 l 27.61734,15.94488 v -3.54331 l -27.61734,-15.94488"
       id="path4972"
       inkscape:connector-curvature="0"
       sodipodi:nodetypes="ccccc" />
    <path
       style="fill:#403d6b;fill-opacity:1;stroke:none;stroke-width:1.9;stroke-linecap:square;stroke-linejoin:round;stroke-miterlimit:4;stroke-dasharray:none;stroke-dashoffset:0;stroke-opacity:0.521569"
       d="m 53.700175,55.586769 v 3.54331 l 39.89173,-23.0315 v -3.5433"
       id="path4974"
       inkscape:connector-curvature="0"
       sodipodi:nodetypes="cccc" />
    <g
       id="g7017"
       transform="matrix(0.91684687,0,0,0.91684687,448.41191,1030.38)">
      <g
         id="g6332"
         transform="translate(39.891552,15.059017)">
        <path
           style="fill:#c94929;fill-opacity:0.431953;stroke:none;stroke-width:2;stroke-linecap:round;stroke-linejoin:round;stroke-miterlimit:4;stroke-dasharray:none;stroke-dashoffset:0;stroke-opacity:1"
           d="m -476.39588,-1102.1786 v -8.8582 l -3.0686,-7.0866 -7.67145,-4.4292 h -9.2058 l -7.6715,4.4292 -3.0686,7.0866 v 8.8582 l 6.1372,8.8583 3.0686,5.315 4.6029,0.8858 h 3.0686 l 4.6029,-0.8858 3.06855,-5.315 6.1372,-8.8583"
           id="path6384"
           inkscape:connector-curvature="0"
           sodipodi:nodetypes="ccccccccccccccc" />
        <path
           style="fill:#a4bdbd;fill-opacity:0.431953;stroke:none;stroke-width:2;stroke-linecap:round;stroke-linejoin:round;stroke-miterlimit:4;stroke-dasharray:none;stroke-dashoffset:0;stroke-opacity:1"
           d="m -485.60163,-1088.0053 v 7.0866 l -1.5343,2.6575 -1.5343,0.8858 h -6.1372 l -1.5343,-0.8858 -1.5343,-2.6575 v -7.0866 l 4.6029,0.8858 h 3.0686 z"
           id="path6386"
           inkscape:connector-curvature="0" />
        <path
           style="fill:#3c1919;fill-opacity:0.431953;stroke:none;stroke-width:2;stroke-linecap:round;stroke-linejoin:round;stroke-miterlimit:4;stroke-dasharray:none;stroke-dashoffset:0;stroke-opacity:1"
           d="m -485.60163,-1088.0053 -4.6029,-0.8859 h -3.0686 l -4.6029,0.8859 4.6029,0.8858 h 3.0686 z"
           id="path6388"
           inkscape:connector-curvature="0" />
        <path
           style="fill:#8a3939;fill-opacity:1;stroke:none;stroke-width:2;stroke-linecap:round;stroke-linejoin:round;stroke-miterlimit:4;stroke-dasharray:none;stroke-dashoffset:0;stroke-opacity:1"
           d="m -497.87603,-1088.0053 -7.6715,-13.2874 v -8.8583 l 3.0686,-7.0866 7.6715,-4.4291 7.6715,-0.8859 h -9.2058 l -7.6715,4.4292 -3.0686,7.0866 v 8.8582 z"
           id="path6390"
           inkscape:connector-curvature="0" />
        <path
           style="opacity:0.318283;fill:#f3821b;fill-opacity:1;stroke:none;stroke-width:2;stroke-linecap:round;stroke-linejoin:round;stroke-miterlimit:4;stroke-dasharray:none;stroke-dashoffset:0;stroke-opacity:1"
           d="m -497.87603,-1088.0053 -4.6029,-11.5158 v -8.8583 l 3.0686,-7.0866 7.6715,-4.4291 4.6029,-2.6575 -6.1372,1.7717 -7.6715,4.4291 -3.0686,7.0866 v 8.8583 l 6.1372,12.4016"
           id="path6394"
           inkscape:connector-curvature="0" />
        <path
           style="fill:#c94929;fill-opacity:1;stroke:none;stroke-width:2;stroke-linecap:round;stroke-linejoin:round;stroke-miterlimit:4;stroke-dasharray:none;stroke-dashoffset:0;stroke-opacity:1"
           d="m -484.06733,-1106.6077 -7.6715,18.6024 -7.6715,-18.6024 7.6715,16.8307 z"
           id="path6396"
           inkscape:connector-curvature="0" />
        <path
           style="fill:#face21;fill-opacity:1;stroke:none;stroke-width:2;stroke-linecap:round;stroke-linejoin:round;stroke-miterlimit:4;stroke-dasharray:none;stroke-dashoffset:0;stroke-opacity:1"
           d="m -484.06733,-1106.6077 -1.5343,-2.6575 -1.5343,4.4292 -1.5343,-4.4292 -1.5343,4.4292 -1.5343,-4.4292 -1.5343,4.4292 -1.5343,-4.4292 -1.5343,4.4292 -1.5343,-4.4292 -1.5343,2.6575 1.5343,-4.4291 1.5343,6.2008 1.5343,-6.2008 1.5343,6.2008 1.5343,-6.2008 1.5343,6.2008 1.5343,-6.2008 1.5343,6.2008 1.5343,-6.2008 z"
           id="path6398"
           inkscape:connector-curvature="0" />
        <path
           inkscape:connector-curvature="0"
           id="path6400"
           d="m -482.53308,-1106.342 -1.84115,-3.1889 -1.84115,5.3149 -1.84115,-5.3149 -1.84115,5.3149 -1.84115,-5.3149 -1.84115,5.3149 -1.84115,-5.3149 -1.84115,5.3149 -1.84115,-5.3149 -1.84115,3.1889 1.84115,-5.3149 1.84115,7.4409 1.84115,-7.4409 1.84115,7.4409 1.84115,-7.4409 1.84115,7.4409 1.84115,-7.4409 1.84115,7.4409 1.84115,-7.4409 z"
           style="fill:#face21;fill-opacity:0.147929;stroke:none;stroke-width:2;stroke-linecap:round;stroke-linejoin:round;stroke-miterlimit:4;stroke-dasharray:none;stroke-dashoffset:0;stroke-opacity:1" />
        <path
           style="fill:#face21;fill-opacity:0.0887574;stroke:none;stroke-width:2;stroke-linecap:round;stroke-linejoin:round;stroke-miterlimit:4;stroke-dasharray:none;stroke-dashoffset:0;stroke-opacity:1"
           d="m -484.06733,-1115.466 -4.6029,-2.6574 h -6.1372 l -4.6029,2.6574 v 3.5433 l 7.6715,2.6575 7.6715,-2.6575 z"
           id="path6402"
           inkscape:connector-curvature="0" />
        <path
           style="fill:#face21;fill-opacity:0.201183;stroke:none;stroke-width:2;stroke-linecap:round;stroke-linejoin:round;stroke-miterlimit:4;stroke-dasharray:none;stroke-dashoffset:0;stroke-opacity:1"
           d="m -487.13593,-1122.5526 -1.5343,4.4292 h -6.1372 l -1.5343,-4.4292 h 9.2058"
           id="path6404"
           inkscape:connector-curvature="0" />
        <path
           style="fill:#face21;fill-opacity:0.378698;stroke:none;stroke-width:2;stroke-linecap:round;stroke-linejoin:round;stroke-miterlimit:4;stroke-dasharray:none;stroke-dashoffset:0;stroke-opacity:1"
           d="m -499.41033,-1111.9227 -3.0686,3.5433 -4.6029,-2.6574 3.0686,-7.0866 4.6029,2.6574 v 3.5433"
           id="path6408"
           inkscape:connector-curvature="0" />
        <path
           style="fill:#face21;fill-opacity:0.147929;stroke:none;stroke-width:2;stroke-linecap:round;stroke-linejoin:round;stroke-miterlimit:4;stroke-dasharray:none;stroke-dashoffset:0;stroke-opacity:1"
           d="m -502.47893,-1108.3794 v 8.8583 l -4.6029,-2.6575 v -8.8582 l 4.6029,2.6574"
           id="path6410"
           inkscape:connector-curvature="0" />
        <path
           style="fill:#face21;fill-opacity:0.130178;stroke:none;stroke-width:2;stroke-linecap:round;stroke-linejoin:round;stroke-miterlimit:4;stroke-dasharray:none;stroke-dashoffset:0;stroke-opacity:1"
           d="m -491.73883,-1109.2652 v 7.0866 l -4.6029,2.6575 h -6.1372 v -8.8583 l 3.0686,-3.5433 7.6715,2.6575"
           id="path6412"
           inkscape:connector-curvature="0" />
        <path
           style="fill:#face21;fill-opacity:0.177515;stroke:none;stroke-width:2;stroke-linecap:round;stroke-linejoin:round;stroke-miterlimit:4;stroke-dasharray:none;stroke-dashoffset:0;stroke-opacity:1"
           d="m -502.47893,-1099.5211 3.0686,5.315 -1.5343,0.8858 -6.1372,-8.8583 4.6029,2.6575"
           id="path6414"
           inkscape:connector-curvature="0" />
        <path
           style="fill:#618b94;fill-opacity:1;stroke:none;stroke-width:2;stroke-linecap:round;stroke-linejoin:round;stroke-miterlimit:4;stroke-dasharray:none;stroke-dashoffset:0;stroke-opacity:1"
           d="m -497.87603,-1086.2337 12.2744,1.7717 v 1.7716 l -12.2744,-1.7716 v -1.7717"
           id="path6068"
           inkscape:connector-curvature="0" />
        <path
           style="fill:#618b94;fill-opacity:1;stroke:none;stroke-width:2;stroke-linecap:round;stroke-linejoin:round;stroke-miterlimit:4;stroke-dasharray:none;stroke-dashoffset:0;stroke-opacity:1"
           d="m -485.60163,-1080.9187 -12.2744,-1.7717 v 1.7717 l 11.5096,1.3272 0.7648,-1.3272"
           id="path6070"
           inkscape:connector-curvature="0"
           sodipodi:nodetypes="ccccc" />
      </g>
    </g>
  </g>
</svg>
